<svg id="Group_14619" data-name="Group 14619" xmlns="http://www.w3.org/2000/svg" width="17.815" height="11.426" viewBox="0 0 17.815 11.426">
  <g id="Group_2590" data-name="Group 2590">
    <path id="Path_2666" data-name="Path 2666" d="M17.611,137.061h0l-3.636-4.791a.584.584,0,0,0-.984,0,1.143,1.143,0,0,0,0,1.3l2.441,3.217H.7a.958.958,0,0,0,0,1.843H15.434l-2.441,3.217a1.143,1.143,0,0,0,0,1.3.584.584,0,0,0,.984,0l3.636-4.791h0A1.144,1.144,0,0,0,17.611,137.061Z" transform="translate(0 -132)" fill="#616161"/>
  </g>
</svg>