<svg id="Group_2563" data-name="Group 2563" xmlns="http://www.w3.org/2000/svg" width="12.536" height="11.946" viewBox="0 0 12.536 11.946">
  <g id="Group_2556" data-name="Group 2556">
    <path id="Path_2600" data-name="Path 2600" d="M11.621,423.173A3.082,3.082,0,0,0,9.206,422a3.144,3.144,0,0,0-2.626,1.565,5.265,5.265,0,0,0-.312.546,5.265,5.265,0,0,0-.312-.546A3.144,3.144,0,0,0,3.33,422a3.082,3.082,0,0,0-2.415,1.173A4.3,4.3,0,0,0,0,425.9a5.232,5.232,0,0,0,1.282,3.293,29.532,29.532,0,0,0,3.208,3.232c.485.446.987.907,1.521,1.411l.016.015a.348.348,0,0,0,.484,0l.016-.015c.534-.5,1.036-.965,1.521-1.411a29.532,29.532,0,0,0,3.208-3.232,5.232,5.232,0,0,0,1.282-3.293A4.3,4.3,0,0,0,11.621,423.173Zm-4.051,8.645c-.418.384-.849.78-1.3,1.205-.454-.425-.884-.821-1.3-1.205C2.418,429.477.735,427.93.735,425.9a3.467,3.467,0,0,1,.731-2.2,2.378,2.378,0,0,1,1.864-.905,2.449,2.449,0,0,1,2.027,1.231,4.859,4.859,0,0,1,.562,1.206.36.36,0,0,0,.7,0,4.859,4.859,0,0,1,.562-1.206,2.449,2.449,0,0,1,2.027-1.231,2.378,2.378,0,0,1,1.864.905,3.467,3.467,0,0,1,.731,2.2C11.8,427.93,10.118,429.477,7.571,431.818Z" transform="translate(0 -422)" fill="#000"/>
  </g>
</svg>
