<svg id="home_icon" xmlns="http://www.w3.org/2000/svg" width="13.937" height="10.898" viewBox="0 0 13.937 10.898">
  <g id="Group_250" data-name="Group 250">
    <path id="Path_1389" data-name="Path 1389" d="M6.968,404.606,2,408.632a.109.109,0,0,1,0,.026.1.1,0,0,0,0,.025v4.077a.515.515,0,0,0,.164.382.534.534,0,0,0,.389.162H5.861v-3.262H8.074V413.3h3.319a.534.534,0,0,0,.389-.162.516.516,0,0,0,.165-.382v-4.077a.111.111,0,0,0-.009-.051Z" transform="translate(0.001 -402.406)" fill="#ff5a3c"/>
    <path id="Path_1390" data-name="Path 1390" d="M13.84,407.715l-1.893-1.546V402.7a.261.261,0,0,0-.078-.2.271.271,0,0,0-.2-.076H10.01a.273.273,0,0,0-.2.076.264.264,0,0,0-.077.2v1.657l-2.109-1.733a1.087,1.087,0,0,0-1.314,0L.095,407.715A.247.247,0,0,0,0,407.9a.276.276,0,0,0,.061.2l.536.629a.292.292,0,0,0,.181.093.324.324,0,0,0,.208-.059l5.982-4.9,5.981,4.9a.273.273,0,0,0,.182.059h.026a.3.3,0,0,0,.181-.093l.536-.629a.273.273,0,0,0,.061-.2A.247.247,0,0,0,13.84,407.715Z" transform="translate(0.001 -402.406)" fill="#ff5a3c"/>
  </g>
</svg>
