<svg xmlns="http://www.w3.org/2000/svg" width="65.84" height="59.966" viewBox="0 0 65.84 59.966">
  <g id="house_1_" data-name="house (1)" transform="translate(0 -25.018)">
    <g id="Group_12974" data-name="Group 12974" transform="translate(0 25.018)">
      <g id="Group_12973" data-name="Group 12973" transform="translate(0 0)">
        <path id="Path_62246" data-name="Path 62246" d="M65.34,52.762,53.192,42.172c.014-.072.028-.145.043-.232V28.089a1.529,1.529,0,0,0-1.462-1.521H44.989a1.494,1.494,0,0,0-1.419,1.521v5.737l-9.721-8.461a1.4,1.4,0,0,0-1.845,0L.513,52.748a1.469,1.469,0,0,0-.184,2.043,1.4,1.4,0,0,0,2,.188l.028-.029L32.927,28.379,43.868,37.9l6.542,5.679,13.1,11.388a1.4,1.4,0,0,0,2-.159A1.483,1.483,0,0,0,65.34,52.762ZM50.382,39.723,46.409,36.3V29.48h3.974Z" transform="translate(0 -25.018)" fill="#0a2c3d"/>
      </g>
    </g>
    <g id="Group_12976" data-name="Group 12976" transform="translate(6.274 33.334)">
      <g id="Group_12975" data-name="Group 12975" transform="translate(0 0)">
        <path id="Path_62247" data-name="Path 62247" d="M97.016,104.773,93.028,101.3,71.783,82.766a1.4,1.4,0,0,0-1.845,0L48.694,101.3l-3.988,3.477a1.468,1.468,0,0,0-.156,2.043,1.362,1.362,0,0,0,1.958.174l.014-.014L48.3,105.41v27.165a1.513,1.513,0,0,0,1.462,1.492H91.95a1.5,1.5,0,0,0,1.462-1.492V105.41l1.774,1.565a1.4,1.4,0,0,0,.908.348,1.423,1.423,0,0,0,1.079-.507A1.453,1.453,0,0,0,97.016,104.773ZM76.538,131.155H65.184V115.508H76.538Zm2.838,0V114.1a1.43,1.43,0,0,0-1.362-1.492H63.708a1.43,1.43,0,0,0-1.362,1.492v17.052H51.135V102.933L70.861,85.779l19.726,17.154v28.222Z" transform="translate(-44.208 -82.418)" fill="#0a2c3d"/>
      </g>
    </g>
  </g>
</svg>
