<?xml version="1.0" encoding="UTF-8" standalone="no" ?>
<!DOCTYPE svg PUBLIC "-//W3C//DTD SVG 1.1//EN" "http://www.w3.org/Graphics/SVG/1.1/DTD/svg11.dtd">
<svg xmlns="http://www.w3.org/2000/svg" xmlns:xlink="http://www.w3.org/1999/xlink" version="1.1" width="1080" height="1080" viewBox="0 0 1080 1080" xml:space="preserve">
<desc>Created with Fabric.js 5.2.4</desc>
<defs>
</defs>
<g transform="matrix(1 0 0 1 540 540)" id="f1508b6b-1a17-44db-ae4b-0919cf7b70da"  >
<rect style="stroke: none; stroke-width: 1; stroke-dasharray: none; stroke-linecap: butt; stroke-dashoffset: 0; stroke-linejoin: miter; stroke-miterlimit: 4; fill: rgb(255,255,255); fill-rule: nonzero; opacity: 1; visibility: hidden;" vector-effect="non-scaling-stroke"  x="-540" y="-540" rx="0" ry="0" width="1080" height="1080" />
</g>
<g transform="matrix(1 0 0 1 540 540)" id="df9b31bc-4959-48c6-9a2e-0096572cd2b6"  >
</g>
<g transform="matrix(115.92 0 0 115.92 540 540)" id="Path_2573"  >
<path style="stroke: none; stroke-width: 1; stroke-dasharray: none; stroke-linecap: butt; stroke-dashoffset: 0; stroke-linejoin: miter; stroke-miterlimit: 4; fill: rgb(255,255,255); fill-rule: nonzero; opacity: 1;"  transform=" translate(-4.66, -32.65)" d="M 6.161 33.272 C 6.1634289532905875 33.87923346957878 5.799509724857337 34.42802665920573 5.23919479637576 34.6620898286952 C 4.678879867894183 34.896152998184675 4.032721486200363 34.76930460217117 3.6024795253110673 34.34078360912543 C 3.1722375644217715 33.912262616079694 3.0428003845103953 33.266617832734426 3.2746159317921593 32.705369279569936 C 3.5064314790739233 32.144120726405454 4.053761672514675 31.77800485792597 4.660999999999999 31.778 C 5.4870896245640575 31.777993391256672 6.157695641528072 32.44591698415283 6.161 33.272 Z M 9.317 31.15 L 9.317 35.4 C 9.31620551046048 35.67264291085142 9.207135987677166 35.93380333842444 9.013785729095863 36.12602837726618 C 8.820435470514562 36.31825341610792 8.55864290407534 36.4257968114768 8.286 36.425 L 1.031 36.425 C 0.46347717103862207 36.426107342809914 0.002205037893972417 35.96751962557105 2.220446049250313e-16 35.4 L 0 31.15 C 0.0022050378939721016 30.582480374428943 0.4634771710386216 30.123892657190083 1.0309999999999995 30.125 L 2.3 30.125 L 2.3 29.771 C 2.3000000000000003 29.273943725152286 2.7029437251522865 28.871000000000002 3.1999999999999997 28.871000000000002 L 6.118 28.871000000000002 C 6.6150562748477135 28.871000000000002 7.018 29.273943725152286 7.018000000000001 29.771 L 7.018000000000001 30.125 L 8.286 30.125 C 8.55864290407534 30.124203188523197 8.82043547051456 30.23174658389208 9.013785729095863 30.423971622733816 C 9.207135987677164 30.616196661575557 9.316205510460478 30.877357089148575 9.317 31.15 Z M 6.935 33.272 C 6.939453913474276 32.350860468024 6.38800077169075 31.517942882780346 5.5382538297422945 31.16234759405531 C 4.688506887793839 30.80675230533027 3.708190109584781 30.998667093069155 3.0552618910720515 31.648438296019844 C 2.4023336725593225 32.298209498970536 2.205669686661305 33.277584579336455 2.5571421990846934 34.129045058586655 C 2.908614711508082 34.98050553783686 3.738849700321251 35.535989232234314 4.66 35.536 C 5.912843941805485 35.53766204756767 6.93058967623994 34.52483728151949 6.935 33.272 Z" stroke-linecap="round" />
</g>
</svg>