<?xml version="1.0" encoding="UTF-8" standalone="no" ?>
<!DOCTYPE svg PUBLIC "-//W3C//DTD SVG 1.1//EN" "http://www.w3.org/Graphics/SVG/1.1/DTD/svg11.dtd">
<svg xmlns="http://www.w3.org/2000/svg" xmlns:xlink="http://www.w3.org/1999/xlink" version="1.1" width="1080" height="1080" viewBox="0 0 1080 1080" xml:space="preserve">
<desc>Created with Fabric.js 5.2.4</desc>
<defs>
</defs>
<g transform="matrix(1 0 0 1 540 540)" id="3df8ad8e-267f-4cdd-8108-21a8190503bf"  >
<rect style="stroke: none; stroke-width: 1; stroke-dasharray: none; stroke-linecap: butt; stroke-dashoffset: 0; stroke-linejoin: miter; stroke-miterlimit: 4; fill: rgb(255,255,255); fill-rule: nonzero; opacity: 1; visibility: hidden;" vector-effect="non-scaling-stroke"  x="-540" y="-540" rx="0" ry="0" width="1080" height="1080" />
</g>
<g transform="matrix(1 0 0 1 540 540)" id="2b628377-839a-425f-99fb-b2bc3fd3e486"  >
</g>
<g transform="matrix(54.75 0 0 54.75 540 540)"  >
<g style=""   >
		<g transform="matrix(1 0 0 1 -7.4 2.21)" id="Path_61280"  >
<path style="stroke: none; stroke-width: 1; stroke-dasharray: none; stroke-linecap: butt; stroke-dashoffset: 0; stroke-linejoin: miter; stroke-miterlimit: 4; fill: rgb(10,44,61); fill-rule: nonzero; opacity: 1;" vector-effect="non-scaling-stroke"  transform=" translate(-2.46, -454.01)" d="M 4.5 454.773 L 2.9139999999999997 453.16700000000003 C 2.6084879024738434 452.8547745336538 2.1898314113723485 452.67916237933304 1.752999999999999 452.68 L 0.657 452.68 C 0.4804421894168777 452.6896862197392 0.3422414363467683 452.83567668894983 0.3422414363467684 453.01250000000005 C 0.3422414363467685 453.1893233110502 0.48044218941687783 453.33531378026083 0.6570000000000001 453.345 L 1.7570000000000001 453.345 C 2.0200002651172166 453.34477216023197 2.272123952819382 453.4499437556734 2.457 453.637 L 3.4829999999999997 454.675 L 0.657 454.675 C 0.4730891910435301 454.6750000180131 0.3240000326155984 454.8240891910435 0.3240000326155984 455.00800000000004 C 0.3240000326155984 455.1919108089565 0.47308919104353 455.3409999819869 0.657 455.341 L 4.27 455.341 C 4.402416508140392 455.33919161947426 4.520755273292969 455.2579323340695 4.569999999999999 455.135 C 4.621416283971781 455.0112186036434 4.593855535313738 454.8686901605832 4.5 454.773 Z" stroke-linecap="round" />
</g>
		<g transform="matrix(1 0 0 1 -7.24 6.62)" id="Path_61281"  >
<path style="stroke: none; stroke-width: 1; stroke-dasharray: none; stroke-linecap: butt; stroke-dashoffset: 0; stroke-linejoin: miter; stroke-miterlimit: 4; fill: rgb(10,44,61); fill-rule: nonzero; opacity: 1;" vector-effect="non-scaling-stroke"  transform=" translate(-2.63, -457.33)" d="M 4.27 456.339 C 4.087584527808044 456.34010138580527 3.94044556087302 456.4885820454479 3.9409999999999994 456.671 L 3.9409999999999994 457.671 C 3.942109719153809 457.85342013821287 3.79541605129295 458.002349990035 3.6129999999999995 458.004 L 1.642 458.004 C 1.4595839487070494 458.002349990035 1.3128902808461904 457.85342013821287 1.3139999999999998 457.671 L 1.3139999999999998 456.341 C 1.3207164595471688 456.2193133608575 1.2596150586999042 456.1038829571866 1.155208677183059 456.0410175734431 C 1.050802295666214 455.97815218969964 0.9201977043337858 455.97815218969964 0.8157913228169407 456.0410175734431 C 0.7113849413000956 456.1038829571866 0.650283540452831 456.2193133608575 0.6569999999999998 456.341 L 0.6569999999999998 457.671 C 0.65311892731058 458.21903674634206 1.0939671868780776 458.66659843118214 1.642 458.671 L 3.613 458.671 C 4.161032813121922 458.66659843118214 4.6018810726894195 458.21903674634206 4.598 457.671 L 4.598 456.671 C 4.59853204334778 456.58347807534085 4.564273515688574 456.4993296396084 4.502761237229387 456.43706721141194 C 4.441248958770199 456.37480478321544 4.357521944142554 456.3395288285843 4.27 456.339 Z" stroke-linecap="round" />
</g>
		<g transform="matrix(1 0 0 1 0 2.97)" id="Path_61282"  >
<path style="stroke: none; stroke-width: 1; stroke-dasharray: none; stroke-linecap: butt; stroke-dashoffset: 0; stroke-linejoin: miter; stroke-miterlimit: 4; fill: rgb(10,44,61); fill-rule: nonzero; opacity: 1;" vector-effect="non-scaling-stroke"  transform=" translate(-9.87, -453.68)" d="M 17.86 450.722 C 16.727999999999998 450.24199999999996 14.186 450.022 9.86 450.022 C 5.533999999999999 450.022 2.9959999999999996 450.245 1.8599999999999994 450.722 C 0.6365234031716605 451.16549418842163 -0.12962589757242848 452.38309490508806 2.220446049250313e-16 453.678 C 0.009411626268436188 454.60896470020054 0.15254076589591964 455.53374732941717 0.4250000000000025 456.424 C 0.4907776079434989 456.5842659873264 0.6522470791522801 456.6839733857978 0.825 456.671 L 4.425 456.671 L 5.981999999999999 457.301 C 6.040711920905999 457.32500659861006 6.103570120858089 457.33723846454666 6.166999999999999 457.337 L 13.567 457.337 C 13.630110953947453 457.33729063653556 13.69265218742303 457.3250543082469 13.751 457.301 L 15.309 456.671 L 18.909 456.671 C 19.08175292084772 456.6839733857978 19.2432223920565 456.5842659873264 19.308999999999997 456.424 C 19.58145923410408 455.5337473294171 19.72458837373156 454.60896470020054 19.733999999999998 453.678 C 19.86174654165662 452.3793576129148 19.08902983152204 451.1604939015179 17.86 450.722 Z M 18.579 456.006 L 15.206 456.006 C 15.142979787654117 456.005651332098 15.080490969655392 456.0175377920434 15.022 456.041 L 13.464 456.671 L 6.264 456.671 L 4.707000000000001 456.041 C 4.648418888332803 456.0178472453407 4.585990443112346 456.00597226934764 4.523000000000001 456.006 L 1.147 456.006 C 0.9416149030358736 455.2466698254279 0.8324268337512877 454.46454728606017 0.8220000000000007 453.678 C 0.6834511918967877 452.65310677835936 1.2748584534275729 451.6693675035572 2.2449999999999988 451.311 C 3.23 450.895 5.792 450.68399999999997 9.862 450.68399999999997 C 13.932 450.68399999999997 16.496000000000002 450.895 17.481 451.311 C 18.45114154657243 451.6693675035572 19.042548808103216 452.6531067783593 18.904000000000003 453.678 C 18.892808923085198 454.46448891843664 18.78363408850004 455.2465166566343 18.579 456.006 Z" stroke-linecap="round" />
</g>
		<g transform="matrix(1 0 0 1 7.4 2.21)" id="Path_61283"  >
<path style="stroke: none; stroke-width: 1; stroke-dasharray: none; stroke-linecap: butt; stroke-dashoffset: 0; stroke-linejoin: miter; stroke-miterlimit: 4; fill: rgb(10,44,61); fill-rule: nonzero; opacity: 1;" vector-effect="non-scaling-stroke"  transform=" translate(-13.31, -454.01)" d="M 15.108 454.675 L 12.288 454.675 L 13.313 453.637 C 13.49800329170981 453.4501325646057 13.750044383339416 453.344995423526 14.013 453.345 L 15.113 453.345 C 15.289557810583123 453.33531378026083 15.427758563653232 453.1893233110502 15.427758563653232 453.01250000000005 C 15.427758563653232 452.83567668894983 15.289557810583123 452.6896862197392 15.113 452.68 L 14.013 452.68 C 13.57591280844312 452.67934697404786 13.157014716274755 452.8549092553611 12.850999999999999 453.16700000000003 L 11.265999999999998 454.773 C 11.171798825521138 454.86846705076914 11.143839017451416 455.0110226919134 11.194999999999999 455.13500000000005 C 11.24402412901352 455.2581087367255 11.362498085628781 455.33946085360134 11.495 455.34100000000007 L 15.107999999999999 455.34100000000007 C 15.29191080895647 455.34099998198695 15.4409999673844 455.19191080895655 15.4409999673844 455.00800000000004 C 15.4409999673844 454.8240891910436 15.29191080895647 454.6750000180132 15.107999999999999 454.67500000000007 Z" stroke-linecap="round" />
</g>
		<g transform="matrix(1 0 0 1 0 2.21)" id="Path_61284"  >
<path style="stroke: none; stroke-width: 1; stroke-dasharray: none; stroke-linecap: butt; stroke-dashoffset: 0; stroke-linejoin: miter; stroke-miterlimit: 4; fill: rgb(10,44,61); fill-rule: nonzero; opacity: 1;" vector-effect="non-scaling-stroke"  transform=" translate(-7.88, -454.01)" d="M 11.793 452.871 C 11.738991842142765 452.75411310434157 11.621760057580296 452.6794755348368 11.492999999999999 452.68 L 4.27 452.68 C 4.141239942419703 452.6794755348368 4.024008157857233 452.75411310434157 3.9699999999999998 452.871 C 3.915674139095745 452.9878349366943 3.933170496542139 453.12547294860593 4.015 453.22499999999997 L 5.6579999999999995 455.22499999999997 C 5.71976319569731 455.30075501135826 5.8122581247629155 455.3448002156752 5.909999999999999 455.34499999999997 L 9.853 455.34499999999997 C 9.950741875237084 455.3448002156752 10.04323680430269 455.30075501135826 10.105 455.22499999999997 L 11.747 453.22499999999997 C 11.829628750820664 453.12588043895823 11.847552516142715 452.9879453753929 11.793 452.871 Z M 9.699 454.671 L 6.066 454.671 L 4.971 453.341 L 10.794 453.341 Z" stroke-linecap="round" />
</g>
		<g transform="matrix(1 0 0 1 0 -3.66)" id="Path_61285"  >
<path style="stroke: none; stroke-width: 1; stroke-dasharray: none; stroke-linecap: butt; stroke-dashoffset: 0; stroke-linejoin: miter; stroke-miterlimit: 4; fill: rgb(10,44,61); fill-rule: nonzero; opacity: 1;" vector-effect="non-scaling-stroke"  transform=" translate(-9.86, -450.32)" d="M 18.376 453.857 C 17.889000000000003 452.45700000000005 16.262 447.831 15.696000000000002 447.228 C 14.991000000000001 446.475 12.971000000000002 446.028 10.290000000000003 446.028 L 9.435 446.028 C 6.7540000000000004 446.028 4.735 446.476 4.029000000000001 447.228 C 3.463000000000001 447.82800000000003 1.8350000000000009 452.454 1.3490000000000006 453.858 C 1.2546910239581883 454.1144353936586 1.3455435010335202 454.40220342059405 1.5700000000000007 454.558 C 1.6805110822233509 454.6109575692844 1.8091995722251393 454.6103362649839 1.9191941593951067 454.5563141007178 C 2.029188746565074 454.50229193645174 2.108351122358797 454.4008304573739 2.134000000000001 454.281 C 2.810669184850689 452.149506982863 3.6288200787505005 450.0655440281276 4.582999999999998 448.043 C 4.912 447.692 6.305 447.097 9.435 447.097 L 10.290000000000001 447.097 C 13.420000000000002 447.097 14.813 447.692 15.141000000000002 448.03999999999996 C 16.09559008605979 450.06398018884454 16.91439998976303 452.14925616555433 17.591999999999995 454.282 C 17.64046805150584 454.4624567252406 17.79853552572011 454.5919674801948 17.985000000000003 454.604 C 18.04418029043216 454.6041145499028 18.10238929577986 454.58895954259333 18.154000000000003 454.56 C 18.38021276560794 454.40412253023777 18.471665203316864 454.11452314415953 18.376 453.857 Z" stroke-linecap="round" />
</g>
		<g transform="matrix(1 0 0 1 7.24 6.62)" id="Path_61286"  >
<path style="stroke: none; stroke-width: 1; stroke-dasharray: none; stroke-linecap: butt; stroke-dashoffset: 0; stroke-linejoin: miter; stroke-miterlimit: 4; fill: rgb(10,44,61); fill-rule: nonzero; opacity: 1;" vector-effect="non-scaling-stroke"  transform=" translate(-13.14, -457.34)" d="M 14.78 456.006 C 14.692212840915012 456.0065288334225 14.60823147521491 456.04191014641924 14.546531661417253 456.10436010992873 C 14.484831847619597 456.1668100734382 14.450467961526419 456.2512128602809 14.450999999999999 456.339 L 14.450999999999999 457.669 C 14.452109719153809 457.85142013821286 14.30541605129295 458.000349990035 14.123 458.002 L 12.152 458.002 C 11.969583948707049 458.000349990035 11.82289028084619 457.85142013821286 11.824 457.669 L 11.824 456.669 C 11.830716459547169 456.54731336085746 11.769615058699904 456.4318829571866 11.66520867718306 456.3690175734431 C 11.560802295666214 456.3061521896996 11.430197704333786 456.3061521896996 11.32579132281694 456.3690175734431 C 11.221384941300096 456.4318829571866 11.16028354045283 456.54731336085746 11.167 456.669 L 11.167 457.669 C 11.16311892731058 458.21703674634205 11.603967186878076 458.6645984311821 12.152 458.669 L 14.123 458.669 C 14.671032813121922 458.6645984311821 15.11188107268942 458.21703674634205 15.107999999999999 457.669 L 15.107999999999999 456.339 C 15.109109719153809 456.1565798617871 14.96241605129295 456.007650009965 14.78 456.006 Z" stroke-linecap="round" />
</g>
</g>
</g>
</svg>