<svg id="Group_14733" data-name="Group 14733" xmlns="http://www.w3.org/2000/svg" width="10.882" height="10.991" viewBox="0 0 10.882 10.991">
  <path id="Path_16909" data-name="Path 16909" d="M11.752,503.239A4.041,4.041,0,0,0,11.5,501.9,2.8,2.8,0,0,0,9.906,500.3a3.965,3.965,0,0,0-1.32-.255c-.583-.028-.767-.035-2.245-.035s-1.663.007-2.243.033a3.935,3.935,0,0,0-1.321.255,2.646,2.646,0,0,0-.965.636,2.711,2.711,0,0,0-.627.972,4.052,4.052,0,0,0-.253,1.334C.9,503.825.9,504.012.9,505.5s.006,1.679.032,2.265a4.041,4.041,0,0,0,.253,1.334,2.805,2.805,0,0,0,1.592,1.608,3.971,3.971,0,0,0,1.321.255c.58.026.765.032,2.243.032s1.662-.006,2.243-.032a3.954,3.954,0,0,0,1.32-.255,2.8,2.8,0,0,0,1.593-1.608,4.078,4.078,0,0,0,.253-1.334c.025-.586.032-.773.032-2.265S11.778,503.825,11.752,503.239Zm-.98,4.487a3.064,3.064,0,0,1-.187,1.02,1.815,1.815,0,0,1-1.034,1.044,2.978,2.978,0,0,1-1.01.189c-.574.025-.746.032-2.2.032s-1.627-.007-2.2-.032a2.978,2.978,0,0,1-1.01-.189,1.683,1.683,0,0,1-.625-.41,1.72,1.72,0,0,1-.406-.632,3.049,3.049,0,0,1-.187-1.02c-.025-.579-.032-.753-.032-2.22s.007-1.642.032-2.22a3.043,3.043,0,0,1,.187-1.02,1.68,1.68,0,0,1,.408-.631,1.7,1.7,0,0,1,.626-.41,2.978,2.978,0,0,1,1.01-.189c.574-.026.746-.032,2.2-.032s1.627.006,2.2.032a2.978,2.978,0,0,1,1.01.189,1.683,1.683,0,0,1,.625.41,1.716,1.716,0,0,1,.406.631,3.088,3.088,0,0,1,.187,1.02c.025.58.032.754.032,2.22S10.8,507.147,10.772,507.726Z" transform="translate(-0.898 -500.007)" fill="#fff"/>
  <path id="Path_16910" data-name="Path 16910" d="M6.341,502.681a2.823,2.823,0,1,0,2.8,2.823A2.81,2.81,0,0,0,6.341,502.681Zm0,4.655A1.832,1.832,0,1,1,8.154,505.5,1.823,1.823,0,0,1,6.341,507.336Z" transform="translate(-0.898 -500.007)" fill="#fff"/>
  <path id="Path_16911" data-name="Path 16911" d="M9.9,502.569a.653.653,0,1,1-.653-.659A.656.656,0,0,1,9.9,502.569Z" transform="translate(-0.898 -500.007)" fill="#fff"/>
</svg>
