<svg xmlns="http://www.w3.org/2000/svg" width="15.924" height="16.03" viewBox="0 0 15.924 16.03">
  <g id="Group_7840" data-name="Group 7840" transform="translate(0 0)">
    <path id="Path_61291" data-name="Path 61291" d="M15.729,464.682,11.2,460.123a6.348,6.348,0,0,0-4.9-10.331,6.345,6.345,0,0,0,0,12.69,6.247,6.247,0,0,0,3.96-1.415l4.528,4.558a.66.66,0,0,0,.938,0A.67.67,0,0,0,15.729,464.682ZM6.3,461.146a5.009,5.009,0,1,1,4.976-5.009A5,5,0,0,1,6.3,461.146Z" transform="translate(0 -449.792)" fill="#fff"/>
  </g>
</svg>
