<svg id="Group_2020" data-name="Group 2020" xmlns="http://www.w3.org/2000/svg" width="16.785" height="11.695" viewBox="0 0 16.785 11.695">
  <g id="Group_2019" data-name="Group 2019">
    <path id="Path_20865" data-name="Path 20865" d="M15.386,415.931H1.4a1.353,1.353,0,0,0-1.4,1.3v9.1a1.353,1.353,0,0,0,1.4,1.3H15.386a1.353,1.353,0,0,0,1.4-1.3v-9.1A1.353,1.353,0,0,0,15.386,415.931Zm-13.988.65H15.386a.718.718,0,0,1,.145.027c-1.211,1.03-5.226,4.442-6.632,5.619a.739.739,0,0,1-1.015,0c-1.405-1.176-5.421-4.589-6.632-5.618A.718.718,0,0,1,1.4,416.581Zm-.7,9.746v-9.1a.6.6,0,0,1,.039-.179c.927.788,3.729,3.169,5.546,4.7C4.473,423.2,1.671,425.668.736,426.5A.586.586,0,0,1,.7,426.327Zm14.687.65H1.4a.7.7,0,0,1-.158-.03c.966-.855,3.786-3.338,5.565-4.751l.611.513a1.474,1.474,0,0,0,1.952,0l.611-.514c1.779,1.414,4.6,3.9,5.565,4.751A.7.7,0,0,1,15.386,426.976Zm.7-.65a.6.6,0,0,1-.037.169c-.935-.828-3.737-3.3-5.548-4.741,1.817-1.535,4.618-3.916,5.546-4.7a.59.59,0,0,1,.039.18Z" transform="translate(0 -415.931)" fill="#FF5A3C"/>
  </g>
</svg>
