<svg xmlns="http://www.w3.org/2000/svg" width="28.901" height="22.453" viewBox="0 0 28.901 22.453">
  <g id="Group_14654" data-name="Group 14654" transform="translate(0 -414.802)">
    <g id="Group_14651" data-name="Group 14651" transform="translate(15.354 414.802)">
      <g id="Group_14650" data-name="Group 14650">
        <path id="Path_68956" data-name="Path 68956" d="M26.961,424.457a6.448,6.448,0,0,0-4.537-2.247c-.008-.119-.014-.284-.014-.509a35.84,35.84,0,0,1,1.029-5.3l.408-1.6H18.9l-.331.593a31.487,31.487,0,0,0-3.218,14.335c0,4.15,3.038,7.526,6.773,7.526s6.774-3.376,6.774-7.526A7.932,7.932,0,0,0,26.961,424.457Zm-4.834,10.289a4.791,4.791,0,0,1-4.515-5.017A30.37,30.37,0,0,1,20.2,417.311h.684a26.145,26.145,0,0,0-.73,4.39,4.472,4.472,0,0,0,.312,1.965,1.79,1.79,0,0,0,1.7,1.045h.049a5.05,5.05,0,0,1-.09,10.034Z" transform="translate(-15.354 -414.802)" fill="#ff5a3c"/>
      </g>
    </g>
    <g id="Group_14653" data-name="Group 14653" transform="translate(0 414.802)">
      <g id="Group_14652" data-name="Group 14652">
        <path id="Path_68957" data-name="Path 68957" d="M11.607,424.457A6.446,6.446,0,0,0,7.07,422.21c-.008-.119-.014-.284-.014-.509a35.729,35.729,0,0,1,1.03-5.3l.407-1.6H3.549l-.331.593A31.5,31.5,0,0,0,0,429.729c0,4.15,3.039,7.526,6.774,7.526s6.773-3.376,6.773-7.526A7.932,7.932,0,0,0,11.607,424.457ZM6.774,434.746a4.792,4.792,0,0,1-4.516-5.017,30.37,30.37,0,0,1,2.586-12.418h.684a26.145,26.145,0,0,0-.73,4.39,4.472,4.472,0,0,0,.312,1.965,1.791,1.791,0,0,0,1.7,1.045h.049a5.05,5.05,0,0,1-.089,10.034Z" transform="translate(0 -414.802)" fill="#ff5a3c"/>
      </g>
    </g>
  </g>
</svg>
