<svg id="Group_1536" data-name="Group 1536" xmlns="http://www.w3.org/2000/svg" width="11.536" height="9.434" viewBox="0 0 11.536 9.434">
  <g id="Group_1535" data-name="Group 1535">
    <path id="Path_16905" data-name="Path 16905" d="M11.536,388.117a4.907,4.907,0,0,1-1.363.376,2.364,2.364,0,0,0,1.04-1.316,4.707,4.707,0,0,1-1.5.576,2.362,2.362,0,0,0-4.091,1.628,2.463,2.463,0,0,0,.055.543A6.68,6.68,0,0,1,.8,387.434a2.391,2.391,0,0,0,.727,3.181,2.324,2.324,0,0,1-1.068-.293v.026a2.388,2.388,0,0,0,1.895,2.339,2.344,2.344,0,0,1-.62.078,2.078,2.078,0,0,1-.448-.041,2.39,2.39,0,0,0,2.21,1.658A4.733,4.733,0,0,1,.566,395.4,4.39,4.39,0,0,1,0,395.366a6.627,6.627,0,0,0,3.628,1.068,6.708,6.708,0,0,0,6.731-6.774c0-.105,0-.207-.009-.308A4.737,4.737,0,0,0,11.536,388.117Z" transform="translate(0 -387)" fill="#000"/>
  </g>
</svg>