<svg xmlns="http://www.w3.org/2000/svg" width="18.068" height="18.652" viewBox="0 0 18.068 18.652">
  <path id="Path_56808" data-name="Path 56808" d="M11.039,506.823H9.575a4.437,4.437,0,0,1-4.42-4.443V500.9H8.11v-7.548h-4.5A3.618,3.618,0,0,0,0,496.971v5.063A9.952,9.952,0,0,0,9.914,512h4.549a3.619,3.619,0,0,0,3.605-3.624v-4.531H11.039Zm-4.371-7.376H5.155V494.8H6.668v4.65Zm9.958,5.847v1.529H12.481v-1.529Zm0,2.978v.1a2.172,2.172,0,0,1-2.163,2.175H9.914a8.5,8.5,0,0,1-8.472-8.517v-5.063A2.171,2.171,0,0,1,3.605,494.8h.108v7.583a5.884,5.884,0,0,0,5.862,5.892Z" transform="translate(0 -493.348)" fill="#fff"/>
</svg>
