<svg xmlns="http://www.w3.org/2000/svg" width="163" height="39" viewBox="0 0 163 39">
  <g id="logo" transform="translate(-3 -4)">
    <text id="Quarter" transform="translate(53 33)" fill="#fff" font-size="28" font-family="Poppins-Bold, Poppins" font-weight="700"><tspan x="0" y="0">Quarter</tspan></text>
    <g id="Group_7843" data-name="Group 7843" transform="translate(-12.34 -2035.42)">
      <path id="Path_61448" data-name="Path 61448" d="M40.145,2065.575a8.119,8.119,0,0,1-.633,2.367,6.928,6.928,0,0,1-1.288,1.959,5.546,5.546,0,0,1-1.815,1.29,4.662,4.662,0,0,1-2.14.378,4.717,4.717,0,0,1-1.1-.207,4.939,4.939,0,0,1-1.063-.485,5.588,5.588,0,0,1-.973-.752,6.346,6.346,0,0,1-.836-1,7.606,7.606,0,0,1-1.1-2.553,8.677,8.677,0,0,1-.167-2.916,8.157,8.157,0,0,1,.805-2.748,6.553,6.553,0,0,1,1.624-2.084,5.35,5.35,0,0,1,1.024-.674,4.781,4.781,0,0,1,1.1-.4,4.507,4.507,0,0,1,1.129-.108,4.62,4.62,0,0,1,1.1.173,5.182,5.182,0,0,1,1.975,1.086,6.609,6.609,0,0,1,1.461,1.854,7.992,7.992,0,0,1,.806,2.319A8.532,8.532,0,0,1,40.145,2065.575Zm-.914-.157a5.86,5.86,0,0,0-.126-2.027,5.1,5.1,0,0,0-.788-1.752,4.208,4.208,0,0,0-.592-.668,3.672,3.672,0,0,0-.68-.488,3.094,3.094,0,0,0-2.9-.073,3.835,3.835,0,0,0-1.167.9,4.744,4.744,0,0,0-.81,1.295,5.463,5.463,0,0,0-.4,1.526,5.723,5.723,0,0,0,.044,1.6,5.39,5.39,0,0,0,.493,1.52,4.544,4.544,0,0,0,.923,1.262,3.53,3.53,0,0,0,1.294.793,3.032,3.032,0,0,0,1.514.117,3.188,3.188,0,0,0,.763-.24,3.518,3.518,0,0,0,.716-.442,4.36,4.36,0,0,0,1.146-1.419A5.513,5.513,0,0,0,39.231,2065.418Z" fill="#ff5a3c"/>
      <path id="Path_61450" data-name="Path 61450" d="M21.211,2072.62v-17.777l.966.007,25.73.2.823.006-.015.992-.255,16.574-.011.718-.542-.035-10.521-.683,10.521-.683-.553.683-.255-16.574.808,1-25.73.2.966-1.195v16.574Z" fill="#ff5a3c"/>
      <path id="Path_61451" data-name="Path 61451" d="M15.34,2060.2,34.1,2042.417l.952-.9.9.875,20.583,20.059-.078.138-22.324-16.978,1.85-.028L16.663,2062.42Z" fill="#ff5a3c"/>
    </g>
  </g>
</svg>
