<svg id="Group_14734" data-name="Group 14734" xmlns="http://www.w3.org/2000/svg" width="13.277" height="8.46" viewBox="0 0 13.277 8.46">
  <g id="Group_1560" data-name="Group 1560" transform="translate(9.128 1.692)">
    <g id="Group_1559" data-name="Group 1559">
      <path id="Path_16920" data-name="Path 16920" d="M11.618,410.924v-1.692h-.83v1.692H9.128v.846h1.66v1.692h.83V411.77h1.66v-.846Z" transform="translate(-9.128 -409.232)" fill="#fff"/>
    </g>
  </g>
  <g id="Group_1562" data-name="Group 1562">
    <g id="Group_1561" data-name="Group 1561">
      <path id="Path_16921" data-name="Path 16921" d="M4.149,410.924v1.692H6.5a2.5,2.5,0,0,1-2.348,1.692,2.538,2.538,0,0,1,0-5.076,2.423,2.423,0,0,1,1.612.612l1.091-1.276a4.067,4.067,0,0,0-2.7-1.028,4.231,4.231,0,0,0,0,8.46A4.2,4.2,0,0,0,8.3,411.77v-.846Z" transform="translate(0 -407.54)" fill="#fff"/>
    </g>
  </g>
</svg>
