<svg xmlns="http://www.w3.org/2000/svg" width="170" height="43" viewBox="0 0 170 43">
  <g id="logo" transform="translate(54 -10)">
    <text id="Quarter" transform="translate(0 42)" fill="#0a2c3d" font-size="30" font-family="Poppins-Bold, Poppins" font-weight="700" letter-spacing="-0.03em"><tspan x="0" y="0">Quarter</tspan></text>
    <g id="Group_7842" data-name="Group 7842" transform="translate(-71.056 -2021.139)">
      <path id="Path_61929" data-name="Path 61929" d="M44.636,2061.4a8.816,8.816,0,0,1-.7,2.6,7.615,7.615,0,0,1-1.433,2.154,6.152,6.152,0,0,1-2.018,1.418,5.175,5.175,0,0,1-3.6.188,5.529,5.529,0,0,1-1.181-.533,6.256,6.256,0,0,1-1.083-.827,6.974,6.974,0,0,1-.929-1.094,8.308,8.308,0,0,1-1.225-2.807,9.376,9.376,0,0,1-.186-3.205,8.893,8.893,0,0,1,.9-3.022,7.2,7.2,0,0,1,1.806-2.29,5.876,5.876,0,0,1,1.139-.742,5.349,5.349,0,0,1,1.225-.434,5.048,5.048,0,0,1,1.256-.118,5.162,5.162,0,0,1,1.227.189,5.777,5.777,0,0,1,2.2,1.194,7.247,7.247,0,0,1,1.624,2.038,8.69,8.69,0,0,1,.9,2.551A9.248,9.248,0,0,1,44.636,2061.4Zm-1.016-.173a6.4,6.4,0,0,0-.139-2.228,5.586,5.586,0,0,0-.877-1.927,4.653,4.653,0,0,0-.658-.734,4.016,4.016,0,0,0-.757-.536,3.472,3.472,0,0,0-3.227-.081,4.265,4.265,0,0,0-1.3.992,5.267,5.267,0,0,0-.9,1.424,5.971,5.971,0,0,0-.44,1.678,6.252,6.252,0,0,0,.049,1.76,5.907,5.907,0,0,0,.548,1.671,5,5,0,0,0,1.027,1.387,3.948,3.948,0,0,0,1.439.873,3.42,3.42,0,0,0,1.683.128,3.585,3.585,0,0,0,.848-.264,3.9,3.9,0,0,0,.8-.486,4.8,4.8,0,0,0,1.274-1.561A6.012,6.012,0,0,0,43.62,2061.222Z" fill="#ff5a3c"/>
      <path id="Path_61931" data-name="Path 61931" d="M23.585,2069.14V2049.6l1.075.008,28.609.216.915.007-.017,1.091-.284,18.222-.012.79-.6-.039-11.7-.751,11.7-.751-.614.751-.284-18.222.9,1.1-28.609.216,1.075-1.313v18.222Z" fill="#ff5a3c"/>
      <path id="Path_61932" data-name="Path 61932" d="M17.056,2055.481l20.862-19.546,1.059-.992,1,.961,22.886,22.053-.087.152-24.821-18.665,2.057-.031-21.483,18.513Z" fill="#ff5a3c"/>
    </g>
  </g>
</svg>
