<!-- sample rectangle -->
<svg xmlns="http://www.w3.org/2000/svg" width="14.967" height="14.384" viewBox="0 0 14.967 14.384">
  <g id="Group_7841" data-name="Group 7841" transform="translate(0 0)">
    <g id="Group_7451" data-name="Group 7451">
      <path id="Path_61293" data-name="Path 61293" d="M13.743,322.352a4,4,0,0,0-5.994,0l-.264.289-.264-.289a4,4,0,0,0-5.784-.22q-.11.106-.212.22a4.867,4.867,0,0,0,0,6.455l5.872,6.4a.523.523,0,0,0,.756.021l.02-.021,5.87-6.4A4.867,4.867,0,0,0,13.743,322.352Zm-.774,5.693h0l-5.484,5.982L2,328.044a3.719,3.719,0,0,1,0-4.932,2.953,2.953,0,0,1,4.272-.178q.089.085.172.178l.652.712a.538.538,0,0,0,.777,0l.652-.711a2.953,2.953,0,0,1,4.272-.178q.089.085.172.178A3.684,3.684,0,0,1,12.969,328.044Z" transform="translate(0 -321)" fill="#ff5a3c"/>
    </g>
  </g>
</svg>

