<svg xmlns="http://www.w3.org/2000/svg" width="47.002" height="49.971" viewBox="0 0 47.002 49.971">
  <g id="Group_14626" data-name="Group 14626" transform="translate(0 -473.851)">
    <path id="Path_61898" data-name="Path 61898" d="M15.781,492.161a2.941,2.941,0,1,0-2.941,2.993,2.971,2.971,0,0,0,2.941-2.993Zm-4.783,0a1.843,1.843,0,1,1,1.842,1.876A1.861,1.861,0,0,1,11,492.161Z" transform="translate(2.981 5.63)" fill="#ff5a3c"/>
    <path id="Path_61899" data-name="Path 61899" d="M13.632,481.927a.559.559,0,0,0,0-1.118H12.048a.559.559,0,0,0,0,1.118Z" transform="translate(3.145 2.221)" fill="#ff5a3c"/>
    <path id="Path_61900" data-name="Path 61900" d="M46.314,522.358H41.055a3.626,3.626,0,0,0,.418-.571,3.83,3.83,0,0,0,.445-2.76,3.645,3.645,0,0,0-1.66-2.38l-3.122-2.093,3.261-2.185a3.638,3.638,0,0,0,1.521-2.287,3.832,3.832,0,0,0-.445-2.761c-.675-1.137-1.472-1.313-4.336-3.329l3.26-2.185a3.8,3.8,0,0,0,1.076-5.048,3.406,3.406,0,0,0-3-1.708H32.843a.733.733,0,0,0,0,1.463h2.539L30.8,499.585H26.668v-3.072H30.09a.733.733,0,0,0,0-1.463H26.6a2.285,2.285,0,0,0-2.183-1.816h-.487V487.5h2.582a.691.691,0,0,0,.648-.486.76.76,0,0,0-.212-.812l-10.16-8.867v-2.756a.69.69,0,1,0-1.378,0v2.756L11.219,481a.766.766,0,0,0-.1,1.031.661.661,0,0,0,.969.1l4.007-3.5,8.49,7.408H7.611l2.344-2.045a.764.764,0,0,0,.1-1.03.661.661,0,0,0-.969-.1L5.25,486.206a.762.762,0,0,0-.211.812.693.693,0,0,0,.648.486H8.269v2.738h0v9.827a.69.69,0,1,0,1.377,0v-9.1H22.555V504.7H9.646V503a.69.69,0,1,0-1.377,0v19.36H.688a.734.734,0,0,0,0,1.464H46.314a.734.734,0,0,0,0-1.464Zm-28.475-7.119H14.362v-2.1h3.477Zm0-3.568H14.362v-2.105h3.477ZM14.362,516.7h3.477v2.105H14.362Zm3.477-10.542v1.94H14.362v-1.94Zm-3.477,14.112h3.477v2.086H14.362Zm4.854-14.112h3.339v16.2H19.216Zm4.716-.731v-2.566h.487A2.285,2.285,0,0,0,26.6,501.05h2.034a3.815,3.815,0,0,0-.866,4.894c.658,1.109,1.309,1.206,4.336,3.328l-3.26,2.186a3.639,3.639,0,0,0-1.521,2.287,3.829,3.829,0,0,0,.445,2.76c.7,1.179,1.162,1.092,8.1,5.854H23.932Zm12.579,13.032a2.041,2.041,0,0,1,1.752-1.024,1.957,1.957,0,0,1,1.1.338l.3.2h0a2.283,2.283,0,0,1,.646,3.029,2.033,2.033,0,0,1-1.75,1.026,1.972,1.972,0,0,1-1.1-.338h0l-.3-.2a2.282,2.282,0,0,1-.645-3.027Zm.522-2.246a3.474,3.474,0,0,0-1.686,1.466,3.815,3.815,0,0,0-.519,2.248l-2.919-1.957c.572-.233.663-.385,3.937-2.553Zm3.542-6.458a2.181,2.181,0,0,1-.913,1.371c-8.125,5.317-7.938,5.621-8.978,5.621a2.04,2.04,0,0,1-1.75-1.026,2.3,2.3,0,0,1-.267-1.656,2.184,2.184,0,0,1,.913-1.373l7.88-5.281a1.971,1.971,0,0,1,1.1-.338,2.04,2.04,0,0,1,1.75,1.024,2.3,2.3,0,0,1,.267,1.657Zm-3.243-3.9a3.412,3.412,0,0,0-.608.324L33.4,508.408l-1.488-1c.572-.232.672-.39,3.937-2.553Zm2.976-8.314a2.283,2.283,0,0,1-.646,3.029l-7.88,5.281a1.964,1.964,0,0,1-2.165.025l-.038-.025-.016-.01a2.136,2.136,0,0,1-.629-.676,2.282,2.282,0,0,1,.646-3.029l7.88-5.282a1.961,1.961,0,0,1,1.1-.338,2.04,2.04,0,0,1,1.75,1.024ZM24.418,494.7a.9.9,0,0,1,.873.929v4.844a.9.9,0,0,1-.873.929h-.487v-6.7ZM9.646,489.51V487.5H22.555v2.005Zm0,16.652h3.339v16.2H9.646Z" transform="translate(0 0)" fill="#ff5a3c"/>
  </g>
</svg>
