<svg xmlns="http://www.w3.org/2000/svg" width="47.961" height="44.963" viewBox="0 0 47.961 44.963">
  <g id="Page-1" transform="translate(0 -477.505)">
    <g id="Group_7814" data-name="Group 7814" transform="translate(0 477.505)">
      <path id="Shape" d="M39.968,501.353v-7.864c0-3.088-10.049-3.911-15.987-3.911s-15.987.823-15.987,3.911v7.864A8.689,8.689,0,0,0,0,509.92a3.164,3.164,0,0,0,3.2,3.13v4.694a2.373,2.373,0,0,0,2.4,2.347h1.6a2.378,2.378,0,0,0,2.383-2.2c.772-.718,6.21-1.717,14.4-1.717s13.632,1,14.4,1.715a2.377,2.377,0,0,0,2.383,2.2h1.6a2.373,2.373,0,0,0,2.4-2.347V513.05a3.164,3.164,0,0,0,3.2-3.13,8.689,8.689,0,0,0-7.994-8.566Zm-15.987-10.21c8.864,0,14.06,1.534,14.388,2.364v7.807H36.623a2.285,2.285,0,0,0,.147-.782v-3.912a2.373,2.373,0,0,0-2.4-2.347H27.179a2.374,2.374,0,0,0-2.4,2.347v3.912a2.285,2.285,0,0,0,.147.782H23.034a2.285,2.285,0,0,0,.147-.782v-3.912a2.374,2.374,0,0,0-2.4-2.347H13.589a2.373,2.373,0,0,0-2.4,2.347v3.912a2.285,2.285,0,0,0,.147.782H9.592v-7.8C9.883,492.688,15.087,491.143,23.981,491.143Zm2.4,9.388v-3.912a.792.792,0,0,1,.8-.783h7.194a.792.792,0,0,1,.8.783v3.912a.792.792,0,0,1-.8.782H27.179A.792.792,0,0,1,26.379,500.531Zm-13.59,0v-3.912a.792.792,0,0,1,.8-.783h7.194a.792.792,0,0,1,.8.783v3.912a.792.792,0,0,1-.8.782H13.589A.792.792,0,0,1,12.789,500.531Zm-5.6,17.994H5.6a.791.791,0,0,1-.8-.783V513.05h3.2v4.694A.791.791,0,0,1,7.194,518.526Zm2.4-2.331V513.05H38.369v3.145c-3.617-1.486-12.29-1.58-14.388-1.58S13.21,514.709,9.592,516.195Zm33.573,1.549a.791.791,0,0,1-.8.783h-1.6a.791.791,0,0,1-.8-.783V513.05h3.2Zm1.6-6.258H3.2a1.582,1.582,0,0,1-1.6-1.565,7.127,7.127,0,0,1,7.194-7.041H39.168a7.127,7.127,0,0,1,7.194,7.041A1.582,1.582,0,0,1,44.763,511.485Z" transform="translate(0 -475.128)" fill="#ff5a3c"/>
      <path id="Path_61884" data-name="Path 61884" d="M7.383,500.5A5.162,5.162,0,0,0,2.5,505.178a.8.8,0,0,0,.58.923.644.644,0,0,0,.116.011.739.739,0,0,0,.7-.669A3.687,3.687,0,0,1,7.383,502.1a.808.808,0,0,0,0-1.6Z" transform="matrix(0.996, -0.087, 0.087, 0.996, -43.846, -468.418)" fill="#ff5a3c"/>
      <circle id="Oval" cx="1" cy="1" r="1" transform="translate(9.282 29.216)" fill="#ff5a3c"/>
      <path id="Path_61885" data-name="Path 61885" d="M25.616,488.359a1.213,1.213,0,0,0,1.22-1.206v-7.777a1.207,1.207,0,0,0-.848-1.148,1.224,1.224,0,0,0-1.364.447l-1.39,1.924L21.8,478.112a1.226,1.226,0,0,0-2.117,0L18.3,480.5l-1.381-2.388a1.226,1.226,0,0,0-2.117,0L13.36,480.6l-1.389-1.924a1.226,1.226,0,0,0-1.365-.447,1.207,1.207,0,0,0-.848,1.148v7.777a1.214,1.214,0,0,0,1.22,1.206Zm-14.638-8.985,1.944,2.689a.59.59,0,0,0,.527.253.61.61,0,0,0,.5-.3l1.91-3.3,1.911,3.305a.637.637,0,0,0,1.058,0l1.911-3.305,1.91,3.305a.609.609,0,0,0,.5.3.6.6,0,0,0,.527-.252l1.944-2.688v7.777H10.978Z" transform="translate(5.684 -477.505)" fill="#ff5a3c"/>
      <ellipse id="Ellipse_2535" data-name="Ellipse 2535" cx="0.61" cy="0.575" rx="0.61" ry="0.575" transform="translate(21.953 5.749)" fill="#ff5a3c"/>
      <ellipse id="Ellipse_2536" data-name="Ellipse 2536" cx="0.61" cy="0.575" rx="0.61" ry="0.575" transform="translate(18.118 5.749)" fill="#ff5a3c"/>
      <ellipse id="Ellipse_2537" data-name="Ellipse 2537" cx="0.61" cy="0.575" rx="0.61" ry="0.575" transform="translate(28.624 5.749)" fill="#ff5a3c"/>
      <ellipse id="Ellipse_2538" data-name="Ellipse 2538" cx="0.61" cy="0.575" rx="0.61" ry="0.575" transform="translate(24.788 5.749)" fill="#ff5a3c"/>
    </g>
  </g>
</svg>
