<svg xmlns="http://www.w3.org/2000/svg" width="37.163" height="36.377" viewBox="0 0 37.163 36.377">
  <g id="Group_14623" data-name="Group 14623" transform="translate(0 -449.921)">
    <path id="Path_61881" data-name="Path 61881" d="M19.217,449.921H10.89a.621.621,0,0,0-.641.6v4.211H.641a.623.623,0,0,0-.641.6v30.083a.622.622,0,0,0,.641.6H19.217a.621.621,0,0,0,.641-.6v-34.9A.621.621,0,0,0,19.217,449.921Zm-.641,31.286H11.531V480h7.046Zm-17.3-22.261H10.25V477H1.281Zm17.3-2.408H11.531v-1.805h7.046ZM1.281,478.2H10.25V480H1.281Zm10.25.6V457.742h7.046V478.8Zm7.046-27.677v2.407H11.531v-2.407Zm-8.327,4.814v1.805H1.281v-1.805ZM1.281,481.207H10.25v3.61H1.281Zm10.25,3.61v-2.406h7.046v2.406Z" transform="translate(0 0)" fill="#ff5a3c"/>
    <path id="Path_61882" data-name="Path 61882" d="M34.12,482.78l-6.827-28.387a.614.614,0,0,0-.265-.378.532.532,0,0,0-.433-.063l-8.534,2.469a.622.622,0,0,0-.4.751l6.827,28.387a.618.618,0,0,0,.265.378.528.528,0,0,0,.433.062l8.534-2.468A.624.624,0,0,0,34.12,482.78ZM19.807,461.224l7.436-2.15.267,1.112-7.435,2.153Zm7.99.158,3.3,13.73-7.432,2.151-3.3-13.73Zm3.59,14.924.583,2.421-7.436,2.15-.58-2.421Zm-5.051-21,.619,2.576L19.52,460.03l-.619-2.575Zm-.9,29.344-.619-2.576,7.435-2.15.619,2.575Z" transform="matrix(0.999, -0.035, 0.035, 0.999, -13.916, 1.19)" fill="#ff5a3c"/>
    <path id="Path_61883" data-name="Path 61883" d="M7.4,458.945H2.845a.538.538,0,0,0-.569.5v4.01a.539.539,0,0,0,.569.5H7.4a.539.539,0,0,0,.569-.5v-4.01A.538.538,0,0,0,7.4,458.945Zm-.569,4.01H3.414v-3.008H6.828Z" transform="translate(0 2.167)" fill="#ff5a3c"/>
  </g>
</svg>
