<svg id="Group_2017" data-name="Group 2017" xmlns="http://www.w3.org/2000/svg" width="12.039" height="16.507" viewBox="0 0 12.039 16.507">
  <g id="Group_2016" data-name="Group 2016">
    <g id="Group_2015" data-name="Group 2015">
      <path id="Path_20858" data-name="Path 20858" d="M54.1,351.653a6.066,6.066,0,0,0-6.019,6.1,7.1,7.1,0,0,0,.511,2.348,9.926,9.926,0,0,0,.695,1.318l4.128,6.334a.779.779,0,0,0,1.371,0l4.128-6.335a10.05,10.05,0,0,0,.7-1.318,7.133,7.133,0,0,0,.51-2.348A6.066,6.066,0,0,0,54.1,351.653Zm4.857,8.167a9.079,9.079,0,0,1-.635,1.2l-4.127,6.335c-.081.125-.107.125-.189,0l-4.127-6.335a8.956,8.956,0,0,1-.634-1.2,6.425,6.425,0,0,1-.456-2.069,5.312,5.312,0,1,1,10.623,0A6.468,6.468,0,0,1,58.956,359.82Z" transform="translate(-48.08 -351.653)" fill="#fff"/>
      <path id="Path_20859" data-name="Path 20859" d="M54.1,354.523a3.229,3.229,0,1,0,3.187,3.228A3.211,3.211,0,0,0,54.1,354.523Zm0,5.739a2.511,2.511,0,1,1,2.479-2.511A2.5,2.5,0,0,1,54.1,360.262Z" transform="translate(-48.08 -351.653)" fill="#fff"/>
    </g>
  </g>
</svg>
