<svg xmlns="http://www.w3.org/2000/svg" width="43.486" height="41.799" viewBox="0 0 43.486 41.799">
  <g id="Group_14622" data-name="Group 14622" transform="translate(0 -437.713)">
    <g id="Group_7808" data-name="Group 7808" transform="translate(0 437.713)">
      <g id="Group_7807" data-name="Group 7807">
        <path id="Path_61876" data-name="Path 61876"
          d="M43.433,461.134a5.1,5.1,0,0,0-4.3-4.338v-1.331a6.431,6.431,0,0,0-6.16-6.658,6.454,6.454,0,0,0-6.161,6.459h.042l-.042.007v14.42c0,4.609-3.414,8.354-7.611,8.354S11.6,474.3,11.6,469.695v-1.249c1.05,0,2.174-.769,2.174-2.927v-1.84a10.353,10.353,0,0,0,7.973-9.8v-1.526h-1.45l-.03-9.523a3.654,3.654,0,0,0-2.982-3.583,2.158,2.158,0,0,0-2.727-1.4,2.189,2.189,0,0,0-1.384,2.753,2.156,2.156,0,0,0,4.063.136,2.192,2.192,0,0,1,1.579,2.094l.033,9.519h-1.45v1.547a5.808,5.808,0,0,1-4.171,5.459,6.536,6.536,0,0,1-3.987,0,5.807,5.807,0,0,1-4.163-5.459v-1.547H2.9v-9.512a2.19,2.19,0,0,1,1.609-2.111,2.177,2.177,0,0,0,2.832,1.247,2.213,2.213,0,0,0,1.234-2.86,2.179,2.179,0,0,0-4.111.127,3.649,3.649,0,0,0-3.013,3.6v9.512H0v1.522a10.353,10.353,0,0,0,7.973,9.809v1.84c0,2.157,1.124,2.927,2.174,2.927v1.249c0,5.415,4.064,9.817,9.059,9.817s9.06-4.407,9.06-9.817V455.31a4.986,4.986,0,0,1,4.711-5.037,4.976,4.976,0,0,1,4.71,5.194V456.8a5.121,5.121,0,1,0,5.746,4.338ZM15.22,440.64a.732.732,0,1,1,.725-.731A.727.727,0,0,1,15.22,440.64Zm-8.7-1.463a.732.732,0,1,1-.725.732A.728.728,0,0,1,6.523,439.176ZM1.45,453.87v-.059H3.624v.084A7.26,7.26,0,0,0,8.8,460.745a7.979,7.979,0,0,0,4.87,0,7.26,7.26,0,0,0,5.177-6.851v-.084h1.45v.059a8.943,8.943,0,0,1-7.393,8.519,10.244,10.244,0,0,1-3.058.152,9.749,9.749,0,0,1-1-.153A8.941,8.941,0,0,1,1.45,453.87Zm8.7,13.112c-.652,0-.724-1.024-.724-1.463v-1.553c.057.008.116.011.176.017s.144.014.218.02c.342.031.688.051,1.036.051h.036c.348,0,.693-.02,1.034-.051.072-.006.149-.012.224-.02.058-.007.118-.008.175-.017v1.553c0,.439-.073,1.463-.725,1.463Zm28.266-1.463a3.659,3.659,0,1,1,3.624-3.658A3.641,3.641,0,0,1,38.412,465.519Z"
          transform="translate(0 -437.713)" />
      </g>
    </g>
    <g id="Group_7810" data-name="Group 7810" transform="translate(36.262 460.088)">
      <g id="Group_7809" data-name="Group 7809">
        <path id="Path_61877" data-name="Path 61877"
          d="M32.989,456.058a1.835,1.835,0,1,0,1.867,1.835A1.851,1.851,0,0,0,32.989,456.058Zm0,2.446a.612.612,0,1,1,.622-.611A.617.617,0,0,1,32.989,458.5Z"
          transform="translate(-31.122 -456.058)" />
      </g>
    </g>
  </g>
</svg>