<svg xmlns="http://www.w3.org/2000/svg" width="73" height="65.048" viewBox="0 0 73 65.048">
  <path id="Path_62215" data-name="Path 62215" d="M72.223,44.088a4.592,4.592,0,0,0-6.232-1.172L56.675,48.98l-.027-18.875,3.237,2.949a3.742,3.742,0,0,0,2.528.972h.006a3.762,3.762,0,0,0,2.694-1.138,3.528,3.528,0,0,0-.171-5.085l-6.136-5.59a1.063,1.063,0,0,0-1.473.047.994.994,0,0,0,.048,1.433l6.136,5.59a1.54,1.54,0,0,1,.074,2.22,1.621,1.621,0,0,1-1.177.5h0a1.632,1.632,0,0,1-1.1-.424h0L36.945,9.376a1.063,1.063,0,0,0-1.427,0l-24.3,22.265a1.647,1.647,0,0,1-2.282-.066A1.54,1.54,0,0,1,9,29.357L35.121,5.428a1.651,1.651,0,0,1,2.211,0l15.28,13.922a1.063,1.063,0,0,0,1.473-.047.994.994,0,0,0-.048-1.433L38.757,3.946a3.781,3.781,0,0,0-5.065.007l-8.361,7.66,0-1.366a1.58,1.58,0,0,0-.487-1.139,1.671,1.671,0,0,0-1.17-.471h0l-5.981.008a1.67,1.67,0,0,0-1.171.474,1.58,1.58,0,0,0-.484,1.141l.017,9.858L7.575,27.882a3.528,3.528,0,0,0-.156,5.085A3.72,3.72,0,0,0,10,34.1l.113,0a3.728,3.728,0,0,0,2.533-.979l3.229-2.959.013,8.915a22.573,22.573,0,0,0-3.164-.226H10.942v-.608a3.757,3.757,0,0,0-3.8-3.7H3.8a3.757,3.757,0,0,0-3.8,3.7v15.88a1.028,1.028,0,0,0,1.042,1.014,1.028,1.028,0,0,0,1.042-1.014V38.242A1.7,1.7,0,0,1,3.8,36.569H7.138a1.7,1.7,0,0,1,1.72,1.673v24a1.7,1.7,0,0,1-1.72,1.673H3.8a1.7,1.7,0,0,1-1.72-1.673V60.467a1.028,1.028,0,0,0-1.042-1.013A1.028,1.028,0,0,0,0,60.467v1.773a3.757,3.757,0,0,0,3.8,3.7H7.138a3.757,3.757,0,0,0,3.8-3.7V62.1L26.2,67.723c.028.01.057.02.086.027a7.469,7.469,0,0,0,1.981.274,6.935,6.935,0,0,0,1.054-.08L51.748,64.8l.016,0a11.126,11.126,0,0,0,5.2-2.267L57,62.5,71.49,49.826A4.3,4.3,0,0,0,72.223,44.088ZM23.246,10.664l0,2.855-5.12,4.691-.013-7.54Zm12.989.842L54.562,28.2l.032,22.131-2.95,1.92-3.124-.171-.083-.807a6.488,6.488,0,0,0-5.3-5.675l-.019-13.166a1.863,1.863,0,0,0-1.886-1.831h0l-9.931.014a1.9,1.9,0,0,0-1.333.539,1.8,1.8,0,0,0-.55,1.3l.017,11.479a20.133,20.133,0,0,1-5.6-2.159q-.329-.187-.664-.362c-.087-.046-.175-.088-.263-.133-.136-.069-.271-.138-.408-.2-.109-.053-.22-.1-.33-.154s-.233-.108-.351-.16-.24-.1-.361-.154-.22-.093-.331-.137-.249-.1-.374-.145-.222-.084-.333-.125-.248-.088-.372-.131-.234-.079-.351-.117-.239-.076-.359-.113-.256-.077-.385-.114c-.111-.032-.221-.063-.332-.093-.145-.039-.291-.076-.437-.112-.068-.017-.136-.036-.2-.053l-.016-11.215ZM41.051,45.35l-8.715-.976-.821-.092L31.5,32.646l9.535-.013ZM70.1,48.315,55.629,60.975a9.014,9.014,0,0,1-4.186,1.82L29.027,65.937l-.014,0-.016,0a5.1,5.1,0,0,1-2.1-.131L10.942,59.935V40.876h1.783a20.432,20.432,0,0,1,4.493.5l.164.038c.18.042.36.086.539.133l.047.013q.269.072.537.151l.1.028q.284.085.566.179l.058.02q.587.2,1.161.43l.063.025q.286.117.568.242l.015.007q.273.122.542.252l.063.03q.263.128.522.264l.1.052c.174.093.348.187.52.285A22.3,22.3,0,0,0,30.8,46.242l.027,0L42.5,47.552q.1.014.193.031a4.472,4.472,0,0,1,3.529,3.158,4.338,4.338,0,0,1,.141.738l.046.453-21.88-1.864a1.034,1.034,0,0,0-1.129.921,1.022,1.022,0,0,0,.947,1.1L47.48,54.058H47.5l.016,0,4.363.238h.058c.021,0,.041,0,.062,0s.046,0,.07,0,.061-.01.092-.017.044-.008.065-.014a1.023,1.023,0,0,0,.1-.035c.017-.007.035-.012.053-.02a1.04,1.04,0,0,0,.141-.076l3.7-2.41h0L67.152,44.6a2.466,2.466,0,0,1,3.348.629A2.313,2.313,0,0,1,70.1,48.315Z" transform="translate(0 -2.976)" fill="#FF5A3C"/>
</svg>
