<svg id="Group_12968" data-name="Group 12968" xmlns="http://www.w3.org/2000/svg" width="56" height="69" viewBox="0 0 56 69">
  <path id="Path_62220" data-name="Path 62220" d="M56,57.11c-.163-9.378-10.362-12.148-17.809-14.171-.869-.236-1.7-.463-2.487-.69V38.381a14.367,14.367,0,0,0,3.933-3.4h4.536A3.915,3.915,0,0,0,48.2,31.2V26.616a4.61,4.61,0,0,0,.419-1.92V23.271a4.6,4.6,0,0,0-.419-1.919V18.989C48.2,8.518,39.137,0,28,0S7.806,8.518,7.806,18.989v2.3c0,.018,0,.035,0,.053a4.605,4.605,0,0,0-.425,1.933V24.7a5.051,5.051,0,0,0,5.192,4.885H13.76a13.759,13.759,0,0,0,6.537,8.8v3.869c-.783.227-1.619.454-2.487.69C10.362,44.962.163,47.733,0,57.11c0,.007,0,.015,0,.022v10.52A1.393,1.393,0,0,0,1.434,69h4.25a1.35,1.35,0,1,0,0-2.7H2.867V57.143c.06-3.272,1.659-5.724,5.031-7.718a34.007,34.007,0,0,1,7.627-3.037l3.464,6.344a1.5,1.5,0,0,0,2.077.5l1.544-.979,1.326,4.685L21.663,66.3H18.557a1.35,1.35,0,1,0,0,2.7h36.01A1.393,1.393,0,0,0,56,67.652V57.132c0-.007,0-.015,0-.022Zm-18.6-11.582.286.078L35.2,50.15l-4.638-2.94,3.93-2.492C35.407,44.988,36.378,45.252,37.395,45.528ZM28,48.835l2.875,1.822-1.389,4.909H26.514l-1.389-4.908Zm0-3.251-4.837-3.066V39.681a15.4,15.4,0,0,0,9.673,0v2.836ZM39.679,19.235,39.62,19.2c-2.942-1.76-5.482-3.281-9.463-2.21-.037.01-.074.021-.11.034-.844.3-1.611.576-2.354.844-4.533,1.64-7.009,2.536-11.373,2.421V19.21c0-6.054,5.239-10.98,11.679-10.98s11.679,4.925,11.679,10.98v.025ZM45.331,31.2a1.127,1.127,0,0,1-1.159,1.089H41.316a12.988,12.988,0,0,0,.925-2.706h1.185a5.448,5.448,0,0,0,1.907-.343V31.2Zm.419-6.5a2.263,2.263,0,0,1-2.325,2.19h-.88c0-.033,0-5.8,0-5.8h.879a2.261,2.261,0,0,1,2.325,2.186V24.7Zm-33.175,2.19A2.263,2.263,0,0,1,10.25,24.7V23.271a2.261,2.261,0,0,1,2.325-2.186h.879s0,5.767,0,5.8Zm.905-8.5h-.906a5.45,5.45,0,0,0-1.9.34C10.824,9.864,18.538,2.7,28,2.7s17.181,7.17,17.328,16.035a5.452,5.452,0,0,0-1.9-.341h-.906C42.066,11.23,35.728,5.535,28,5.535S13.934,11.23,13.481,18.39ZM16.407,28.1v0a10.375,10.375,0,0,1-.086-1.307v-3.8c4.9.112,7.83-.946,12.4-2.6.72-.261,1.465-.53,2.276-.817,2.708-.711,4.266.222,7.081,1.907.488.292,1.024.613,1.6.942v4.37a10.414,10.414,0,0,1-1.579,5.5H28a1.35,1.35,0,1,0,0,2.7h7.759A12.058,12.058,0,0,1,28,37.765,11.464,11.464,0,0,1,16.407,28.1ZM20.8,50.15,18.32,45.606l.285-.078c1.017-.276,1.988-.54,2.9-.81l3.931,2.492ZM24.6,66.3l1.951-8.043h2.89L31.4,66.3Zm28.529,0H34.34l-2.275-9.366,1.326-4.687,1.548.981a1.5,1.5,0,0,0,2.077-.5l3.46-6.343A34.012,34.012,0,0,1,48.1,49.425c3.372,1.994,4.971,4.446,5.031,7.718V66.3Z" fill="#FF5A3C"/>
  <path id="Path_62221" data-name="Path 62221" d="M47.472,59.566H40.247a1.35,1.35,0,1,0,0,2.7h7.225a1.35,1.35,0,1,0,0-2.7Z" fill="#FF5A3C"/>
  <path id="Path_62222" data-name="Path 62222" d="M12.12,66.3a1.35,1.35,0,1,0,0,2.7h0a1.35,1.35,0,1,0,0-2.7Z" fill="#FF5A3C"/>
</svg>
