<svg id="Group_920" data-name="Group 920" xmlns="http://www.w3.org/2000/svg" width="8.911" height="11.153" viewBox="0 0 8.911 11.153">
  <path id="Path_3886" data-name="Path 3886" d="M46.388,506.224a2.438,2.438,0,0,0,1.819-.787,2.77,2.77,0,0,0,0-3.8,2.5,2.5,0,0,0-3.638,0,2.772,2.772,0,0,0,0,3.8A2.438,2.438,0,0,0,46.388,506.224Z" transform="translate(-42 -500.851)" fill="#ff5a3c"/>
  <path id="Path_3887" data-name="Path 3887" d="M50.889,509.427a6.81,6.81,0,0,0-.086-.705,5.847,5.847,0,0,0-.166-.708,3.586,3.586,0,0,0-.279-.661,2.485,2.485,0,0,0-.421-.572,1.855,1.855,0,0,0-.6-.4,2.023,2.023,0,0,0-.771-.145.758.758,0,0,0-.418.185c-.126.085-.272.184-.436.293a2.439,2.439,0,0,1-.564.259,2.088,2.088,0,0,1-1.378,0,2.43,2.43,0,0,1-.563-.259l-.436-.293a.761.761,0,0,0-.418-.185,2.02,2.02,0,0,0-.771.145,1.86,1.86,0,0,0-.6.4,2.482,2.482,0,0,0-.42.572,3.586,3.586,0,0,0-.279.661,5.664,5.664,0,0,0-.166.708,7.076,7.076,0,0,0-.087.705c-.014.214-.021.435-.021.659a1.9,1.9,0,0,0,.527,1.4,1.85,1.85,0,0,0,1.357.517h5.143a1.85,1.85,0,0,0,1.357-.517,1.893,1.893,0,0,0,.527-1.4C50.911,509.861,50.9,509.639,50.889,509.427Z" transform="translate(-42 -500.851)" fill="#ff5a3c"/>
</svg>
