<svg id="Group_12970" data-name="Group 12970" xmlns="http://www.w3.org/2000/svg" width="58.481" height="64.199" viewBox="0 0 58.481 64.199">
  <g id="Group_12972" data-name="Group 12972" transform="translate(0 32.095)">
    <path id="Path_62231" data-name="Path 62231" d="M36.715,41.463l-5.656-3.895V31.64a1.084,1.084,0,0,0-1.1-1.07H25.574a1.084,1.084,0,0,0-1.1,1.07v1.391l-4.853-3.34a1.119,1.119,0,0,0-1.264,0L1.27,41.461a2.934,2.934,0,0,0-.694,4.161,3.106,3.106,0,0,0,4.267.677l2.084-1.491V59.46A2.168,2.168,0,0,0,9.121,61.6H28.865a2.168,2.168,0,0,0,2.194-2.14V44.809L33.143,46.3a3.121,3.121,0,0,0,3.058.322A2.987,2.987,0,0,0,38,44.187a2.952,2.952,0,0,0-1.284-2.726ZM26.671,32.71h2.194v3.347l-2.194-1.51ZM13.508,59.46V53.04H17.9v6.42Zm15.356,0H20.09V51.97a1.084,1.084,0,0,0-1.1-1.07H12.412a1.084,1.084,0,0,0-1.1,1.07v7.49H9.121V43.239l9.872-7.062,9.872,7.062Zm6.8-15.1a.875.875,0,0,1-1.225.211l-14.8-10.593a1.119,1.119,0,0,0-1.3,0L3.539,44.575a.879.879,0,0,1-.892.132.832.832,0,0,1-.108-1.5L18.993,31.88,35.446,43.21A.827.827,0,0,1,35.666,44.365Z" transform="translate(0 -29.496)" fill="#FF5A3C"/>
    <path id="Path_62232" data-name="Path 62232" d="M19.926,50.237v4.28a1.084,1.084,0,0,0,1.1,1.07H25.41a1.084,1.084,0,0,0,1.1-1.07v-4.28a1.084,1.084,0,0,0-1.1-1.07H21.022A1.084,1.084,0,0,0,19.926,50.237Zm2.194,1.07h2.194v2.14H22.119Z" transform="translate(1.261 -27.762)" fill="#FF5A3C"/>
    <path id="Path_62233" data-name="Path 62233" d="M13.736,43.613a4.389,4.389,0,1,0,4.388-4.28A4.335,4.335,0,0,0,13.736,43.613Zm6.581,0a2.194,2.194,0,1,1-2.194-2.14A2.168,2.168,0,0,1,20.317,43.613Z" transform="translate(0.869 -28.629)" fill="#FF5A3C"/>
    <path id="Path_62235" data-name="Path 62235" d="M51.722,41.3H40.753a2.168,2.168,0,0,0-2.194,2.14v2.14a2.008,2.008,0,0,0,.029.283,2.124,2.124,0,0,0-1.126,1.857v2.14a2.124,2.124,0,0,0,1.126,1.857A2,2,0,0,0,38.56,52v2.14a2,2,0,0,0,.029.283,2.124,2.124,0,0,0-1.126,1.857v2.14a2.168,2.168,0,0,0,2.194,2.14H50.626a2.168,2.168,0,0,0,2.194-2.14V56.28A2,2,0,0,0,52.79,56a2.124,2.124,0,0,0,1.126-1.857V52a2.124,2.124,0,0,0-1.126-1.857,2,2,0,0,0,.029-.283V47.72a2.007,2.007,0,0,0-.029-.283,2.124,2.124,0,0,0,1.126-1.857V43.44a2.168,2.168,0,0,0-2.194-2.14ZM40.753,43.44H51.722v2.14H40.753Zm9.872,6.42H39.657V47.72H50.626Zm1.1,2.14v2.14H40.753V52Zm-1.1,6.42H39.657V56.28H50.626Z" transform="translate(2.371 -28.455)" fill="#FF5A3C"/>
  </g>
  <g id="Group_12971" data-name="Group 12971" transform="translate(11.315)">
    <path id="Path_62230" data-name="Path 62230" d="M56.711,0H47.936a1.084,1.084,0,0,0-1.1,1.07V3.21h-1.08L38.283.087A1.1,1.1,0,0,0,37.855,0H26.316a7.791,7.791,0,0,0-5.427,2.2l-8.932,8.7a4.149,4.149,0,0,0-.678,5.229,4.3,4.3,0,0,0,.584.68,9.323,9.323,0,0,0-1.223,4.6,9.651,9.651,0,0,0,6.693,9.14,10.02,10.02,0,0,0,11.018-3.263,9.438,9.438,0,0,0,.354-11.227H31.43c.785,2.568,4.313,4.28,7.518,4.28s6.731-1.712,7.517-4.28h.374v2.14a1.084,1.084,0,0,0,1.1,1.07h8.775a1.084,1.084,0,0,0,1.1-1.07V1.07A1.084,1.084,0,0,0,56.711,0ZM28.191,21.4a7.681,7.681,0,0,1-15.356,0A7.259,7.259,0,0,1,14.2,17.148,7.71,7.71,0,0,1,20.3,13.91h.208c.137,0,.271.017.408.024a4.309,4.309,0,0,0,3.767,2.117H25.87A7.385,7.385,0,0,1,28.191,21.4Zm17.338-7.49a1.084,1.084,0,0,0-1.1,1.07c0,1.62-2.717,3.21-5.484,3.21s-5.484-1.59-5.484-3.21a1.084,1.084,0,0,0-1.1-1.07H24.688a2.141,2.141,0,1,1,0-4.28H36.754V7.49H24.688A4.335,4.335,0,0,0,20.3,11.77H20.28a9.968,9.968,0,0,0-7.13,3.223c-.009-.012-.02-.021-.029-.034a2.063,2.063,0,0,1,.39-2.549l8.933-8.7A5.557,5.557,0,0,1,26.316,2.14H37.625L45.1,5.263a1.106,1.106,0,0,0,.437.087h1.305v8.56Zm10.085,3.21H49.032V2.14h6.581Z" transform="translate(-10.641 0)" fill="#FF5A3C"/>
    <path id="Path_62234" data-name="Path 62234" d="M19.09,16.977h2.194a1.084,1.084,0,0,1,1.1,1.07h2.194a3.251,3.251,0,0,0-3.291-3.21v-1.07H19.09v1.07a3.211,3.211,0,1,0,0,6.42h2.194a1.07,1.07,0,1,1,0,2.14H19.09a1.084,1.084,0,0,1-1.1-1.07H15.8a3.251,3.251,0,0,0,3.291,3.21v1.07h2.194v-1.07a3.211,3.211,0,1,0,0-6.42H19.09a1.07,1.07,0,1,1,0-2.14Z" transform="translate(-10.315 1.213)" fill="#FF5A3C"/>
  </g>
</svg>
