<svg xmlns="http://www.w3.org/2000/svg" width="57.476" height="60.348" viewBox="0 0 57.476 60.348">
  <g id="official-documents" transform="translate(-0.013 0)">
    <circle id="Ellipse_1" data-name="Ellipse 1" cx="1.5" cy="1.5" r="1.5" transform="translate(23.013 39.348)" fill="#FF5A3C"/>
    <path id="Path_62236" data-name="Path 62236" d="M40.013,127.178v4.71a1.151,1.151,0,0,0,1.123,1.178H73.58a1.151,1.151,0,0,0,1.123-1.178v-4.71A1.151,1.151,0,0,0,73.58,126H41.136A1.151,1.151,0,0,0,40.013,127.178Zm11.9,1.178H72.457v2.355H51.913Zm-9.655,0h7.409v2.355H42.258Z" transform="translate(-35.509 -111.162)" fill="#FF5A3C"/>
    <path id="Path_62237" data-name="Path 62237" d="M41.136,208.355H73.58a1.179,1.179,0,0,0,0-2.355H41.136a1.179,1.179,0,0,0,0,2.355Z" transform="translate(-35.509 -181.741)" fill="#FF5A3C"/>
    <path id="Path_62238" data-name="Path 62238" d="M41.136,248.355H73.58a1.179,1.179,0,0,0,0-2.355H41.136a1.179,1.179,0,0,0,0,2.355Z" transform="translate(-35.509 -217.031)" fill="#FF5A3C"/>
    <path id="Path_62239" data-name="Path 62239" d="M41.136,288.355H59.771a1.179,1.179,0,0,0,0-2.355H41.136a1.179,1.179,0,0,0,0,2.355Z" transform="translate(-35.509 -252.32)" fill="#FF5A3C"/>
    <path id="Path_62240" data-name="Path 62240" d="M41.136,328.355H55.281a1.179,1.179,0,0,0,0-2.355H41.136a1.179,1.179,0,0,0,0,2.355Z" transform="translate(-35.509 -287.61)" fill="#FF5A3C"/>
    <path id="Path_62241" data-name="Path 62241" d="M127.136,373.066h5.726a5.7,5.7,0,0,0,5.5,4.71,5.895,5.895,0,0,0,0-11.776,5.7,5.7,0,0,0-5.5,4.71h-5.726a1.179,1.179,0,0,0,0,2.355Zm11.226-2.355h-3.175a3.388,3.388,0,0,1,3.175-2.355,3.537,3.537,0,0,1,0,7.066,3.388,3.388,0,0,1-3.175-2.355h3.175a1.179,1.179,0,0,0,0-2.355Z" transform="translate(-111.855 -322.899)" fill="#FF5A3C"/>
    <path id="Path_62242" data-name="Path 62242" d="M312.381,62.355a1.179,1.179,0,0,0,0-2.355h-2.245a1.179,1.179,0,0,0,0,2.355Z" transform="translate(-274.311 -52.934)" fill="#FF5A3C"/>
    <path id="Path_62243" data-name="Path 62243" d="M252.381,62.355a1.179,1.179,0,0,0,0-2.355h-2.245a1.179,1.179,0,0,0,0,2.355Z" transform="translate(-221.046 -52.934)" fill="#FF5A3C"/>
    <path id="Path_62244" data-name="Path 62244" d="M192.381,62.355a1.179,1.179,0,0,0,0-2.355h-2.245a1.179,1.179,0,0,0,0,2.355Z" transform="translate(-167.782 -52.934)" fill="#FF5A3C"/>
    <ellipse id="Ellipse_2" data-name="Ellipse 2" cx="2" cy="1" rx="2" ry="1" transform="translate(19.013 58.348)" fill="#FF5A3C"/>
    <path id="Path_62245" data-name="Path 62245" d="M1.136,60.294H16.965a1.179,1.179,0,0,0,0-2.355H2.258V11.776h7.858A1.151,1.151,0,0,0,11.239,10.6V2.355h30.2V35.641c-.509.632-.985,1.187-1.4,1.63l-2.38-2.5a5.425,5.425,0,0,0-7.939,0l-1.587,1.665a1.219,1.219,0,0,0,0,1.665l13.3,13.954v5.881H27.068a1.179,1.179,0,0,0,0,2.355H42.561a1.151,1.151,0,0,0,1.123-1.178v-4.7l.329.345a1.086,1.086,0,0,0,1.588,0l1.587-1.665a6.091,6.091,0,0,0,0-8.327l-2.38-2.5a43,43,0,0,1,9.275-6.916,6.058,6.058,0,0,0,1.754-9.6A5.5,5.5,0,0,0,46.7,27.568a31.794,31.794,0,0,1-3.019,5.072V1.178A1.151,1.151,0,0,0,42.561,0H10.117a1.109,1.109,0,0,0-.794.345L.342,9.766a1.213,1.213,0,0,0-.329.833V59.116a1.151,1.151,0,0,0,1.123,1.178ZM45.6,46.431a3.655,3.655,0,0,1,0,5l-.793.832L30.517,37.271l.794-.833a3.255,3.255,0,0,1,4.763,0ZM43.441,36.8a43.976,43.976,0,0,0,5.315-8.28,3.31,3.31,0,0,1,5.492-1.1,3.648,3.648,0,0,1-1.062,5.772A44.312,44.312,0,0,0,43.22,40.6l-1.59-1.668c.532-.571,1.154-1.3,1.811-2.135ZM8.994,4.021v5.4H3.846Z" transform="translate(0 0)" fill="#FF5A3C"/>
  </g>
</svg>
