<svg id="Group_12967" data-name="Group 12967" xmlns="http://www.w3.org/2000/svg" width="65" height="65" viewBox="0 0 65 65">
  <path id="Path_62216" data-name="Path 62216" d="M63.375,61.75H58.5v-26h3.25a3.251,3.251,0,0,0,2.3-5.549L34.8.951a3.251,3.251,0,0,0-4.6,0l-9.077,9.076V6.5a3.25,3.25,0,0,0-3.25-3.25h-3.25a3.25,3.25,0,0,0-3.25,3.25V19.778L.952,30.2a3.251,3.251,0,0,0,2.3,5.549H6.5v26H1.625a1.625,1.625,0,0,0,0,3.25h61.75a1.625,1.625,0,1,0,0-3.25ZM14.625,6.5h3.25v6.778l-3.25,3.25V6.5ZM55.25,61.75H9.75V32.5H3.25L32.5,3.25,61.75,32.5h-6.5Z" fill="#ff5a3c"/>
  <path id="Path_62217" data-name="Path 62217" d="M44.35,27.236l-26,25.2,2.3,2.227,26-25.2Z" fill="#ff5a3c"/>
  <path id="Path_62218" data-name="Path 62218" d="M24.375,26.775a6.3,6.3,0,1,0,6.5,6.3A6.409,6.409,0,0,0,24.375,26.775Zm0,9.45a3.152,3.152,0,1,1,3.25-3.15A3.2,3.2,0,0,1,24.375,36.225Z" fill="#ff5a3c"/>
  <path id="Path_62219" data-name="Path 62219" d="M40.625,42.525a6.3,6.3,0,1,0,6.5,6.3A6.409,6.409,0,0,0,40.625,42.525Zm0,9.45a3.152,3.152,0,1,1,3.25-3.15A3.2,3.2,0,0,1,40.625,51.975Z" fill="#ff5a3c"/>
</svg>
