<svg xmlns="http://www.w3.org/2000/svg" width="47.793" height="39.671" viewBox="0 0 47.793 39.671">
  <g id="Group_7766" data-name="Group 7766" transform="translate(0 0)">
    <g id="Group_7757" data-name="Group 7757">
      <g id="Group_7756" data-name="Group 7756">
        <path id="Path_61840" data-name="Path 61840"
          d="M45.965,399.715l-1.041-1.183-3.656-10.576a4.311,4.311,0,0,0-3.994-2.981H11.162a4.3,4.3,0,0,0-3.992,2.981L3.564,398.4l-1.5,1.49A6.5,6.5,0,0,0,0,404.681v15.408a4.431,4.431,0,0,0,4.269,4.559h2.7a4.431,4.431,0,0,0,4.269-4.559v-2.236H36.559v2.236a4.431,4.431,0,0,0,4.268,4.559h2.7a4.433,4.433,0,0,0,4.269-4.559V404.275A6.594,6.594,0,0,0,45.965,399.715ZM9.089,388.7a2.218,2.218,0,0,1,2.073-1.534H37.285a2.233,2.233,0,0,1,2.073,1.534l3.186,9.206H40.164a7.087,7.087,0,0,0-7.955-6.334,7.27,7.27,0,0,0-5.9,6.334H5.9Zm28.992,9.206H28.369a4.984,4.984,0,0,1,5.882-4.121A5.169,5.169,0,0,1,38.081,397.908ZM9.191,420.088a2.305,2.305,0,0,1-2.227,2.366h-2.7a2.305,2.305,0,0,1-2.227-2.366v-2.871a3.941,3.941,0,0,0,2.227.636H9.191Zm36.558,0a2.3,2.3,0,0,1-2.226,2.366h-2.7a2.31,2.31,0,0,1-2.226-2.366v-2.236h4.922a3.937,3.937,0,0,0,2.226-.636v2.871Zm-2.226-4.428H4.269a2.286,2.286,0,0,1-2.227-2.345v-8.635A4.242,4.242,0,0,1,3.4,401.547l.041-.045,1.388-1.4H43.5l.981,1.128c.01.022.041.033.051.054a4.28,4.28,0,0,1,1.206,2.993v9.04h.01A2.291,2.291,0,0,1,43.524,415.661Z"
          transform="translate(0 -384.976)" />
      </g>
    </g>
    <g id="Group_7759" data-name="Group 7759" transform="translate(3.886 20.684)">
      <g id="Group_7758" data-name="Group 7758">
        <path id="Path_61841" data-name="Path 61841"
          d="M10.913,399.739h-6.2a.83.83,0,0,0-.826.83v4.312a.83.83,0,0,0,.826.83h6.2a.83.83,0,0,0,.826-.83v-4.312A.83.83,0,0,0,10.913,399.739Zm-.827,4.313H5.539V401.4h4.547Z"
          transform="translate(-3.886 -399.739)" />
      </g>
    </g>
    <g id="Group_7761" data-name="Group 7761" transform="translate(36.053 20.684)">
      <g id="Group_7760" data-name="Group 7760">
        <path id="Path_61842" data-name="Path 61842"
          d="M33.978,399.739h-6.2a.831.831,0,0,0-.827.83v4.312a.831.831,0,0,0,.827.83h6.2a.831.831,0,0,0,.827-.83v-4.312A.831.831,0,0,0,33.978,399.739Zm-.826,4.313H28.6V401.4h4.547Z"
          transform="translate(-26.951 -399.739)" />
      </g>
    </g>
    <g id="Group_7763" data-name="Group 7763" transform="translate(19.077 24.453)">
      <g id="Group_7762" data-name="Group 7762">
        <path id="Path_61843" data-name="Path 61843"
          d="M23.338,403.223H15.352a.829.829,0,0,0,0,1.658h7.986a.829.829,0,0,0,0-1.658Z"
          transform="translate(-14.526 -403.223)" />
      </g>
    </g>
    <g id="Group_7765" data-name="Group 7765" transform="translate(19.077 21.007)">
      <g id="Group_7764" data-name="Group 7764">
        <path id="Path_61844" data-name="Path 61844"
          d="M23.338,400.652H15.352a.829.829,0,0,0,0,1.658h7.986a.829.829,0,0,0,0-1.658Z"
          transform="translate(-14.526 -400.652)" />
      </g>
    </g>
  </g>
</svg>