<svg xmlns="http://www.w3.org/2000/svg" width="17.436" height="17.743" viewBox="0 0 17.436 17.743">
  <g id="Group_7227" data-name="Group 7227" transform="translate(0 -494.257)">
    <path id="Path_61132" data-name="Path 61132" d="M15.438,510.522H14.123a.555.555,0,0,1,0-1.109h1.315a.918.918,0,0,0,.908-.925v-12.2a.918.918,0,0,0-.908-.924H2a.917.917,0,0,0-.908.924v12.2a.917.917,0,0,0,.908.925H3.313a.555.555,0,0,1,0,1.109H2a2.018,2.018,0,0,1-2-2.034v-12.2a2.018,2.018,0,0,1,2-2.033h13.44a2.018,2.018,0,0,1,2,2.033v12.2A2.018,2.018,0,0,1,15.438,510.522Z" fill="#fff"/>
    <path id="Path_61133" data-name="Path 61133" d="M16.891,497.954H.545a.555.555,0,0,1,0-1.109H16.891a.555.555,0,0,1,0,1.109Z" fill="#fff"/>
    <path id="Path_61134" data-name="Path 61134" d="M8.718,512a.542.542,0,0,1-.213-.044c-.169-.073-4.146-1.835-4.146-5.461v-2.97a.554.554,0,0,1,.37-.525l3.814-1.32a.526.526,0,0,1,.35,0L12.707,503a.552.552,0,0,1,.37.525v2.97c0,3.626-3.977,5.388-4.146,5.461a.549.549,0,0,1-.213.044Zm-3.269-8.078v2.573c0,2.476,2.51,3.949,3.268,4.337.757-.39,3.27-1.871,3.27-4.337v-2.573L8.718,502.79Z" fill="#fff"/>
    <path id="Path_61135" data-name="Path 61135" d="M8.536,508.673a.54.54,0,0,1-.385-.162L6.7,507.032a.561.561,0,0,1,0-.784.538.538,0,0,1,.771,0l1.009,1.027,1.8-2.446a.538.538,0,0,1,.763-.111.561.561,0,0,1,.108.776l-2.18,2.958a.54.54,0,0,1-.4.22Z" fill="#fff"/>
  </g>
</svg>
