<svg xmlns="http://www.w3.org/2000/svg" width="14.157" height="13.901" viewBox="0 0 14.157 13.901">
  <path id="Path_2486" data-name="Path 2486"
    d="M109.538,376h3.792l-.167.217-3.539,4.109-.2-.063V376Zm8.395,9.087-2-1.966-.261.154-.4-.375a2.15,2.15,0,0,0-.232-2.8,2.25,2.25,0,0,0-3.135,0,2.146,2.146,0,0,0,0,3.079,2.245,2.245,0,0,0,2.853.227l.371.351-.15.295,2,1.97a1.026,1.026,0,0,0,.7-.291.989.989,0,0,0,.25-.642Zm-3.253-2.264h0a1.728,1.728,0,0,1-2.414,0,1.655,1.655,0,0,1,0-2.371,1.731,1.731,0,0,1,2.414,0,1.653,1.653,0,0,1,0,2.371Zm-6.066,7.078h4.409v-3.892h1.768V389.9h4.438v-5.837H121l-7.08-7.787-7.077,7.787h1.771Z"
    transform="translate(-106.843 -376)" fill-rule="evenodd" />
</svg>