<svg xmlns="http://www.w3.org/2000/svg" width="39.833" height="41.361" viewBox="0 0 39.833 41.361">
  <g id="Group_14624" data-name="Group 14624" transform="translate(0.001 -481.456)">
    <path id="Path_61896" data-name="Path 61896"
      d="M39.49,501.279,20.741,481.811a1.137,1.137,0,0,0-1.651,0L.342,501.279a1.243,1.243,0,0,0-.253,1.32,1.168,1.168,0,0,0,1.078.749H5V521.6a1.19,1.19,0,0,0,1.166,1.212h27.5a1.191,1.191,0,0,0,1.168-1.212V503.348h3.833a1.165,1.165,0,0,0,1.077-.749,1.245,1.245,0,0,0-.252-1.32Zm-5.826-.355a1.19,1.19,0,0,0-1.166,1.212v18.256H7.332V502.136a1.19,1.19,0,0,0-1.166-1.212H3.983l15.933-16.543,15.932,16.543Z" />
    <path id="Path_61897" data-name="Path 61897"
      d="M9.879,501.264v4.966l-1.854,1.859a1,1,0,1,0,1.418,1.422l1.853-1.859h4.953a6.386,6.386,0,0,0,6.369-6.388v-5.384a1,1,0,0,0-1-1.005H16.249a6.387,6.387,0,0,0-6.37,6.39Zm10.735,0a4.372,4.372,0,0,1-4.365,4.378H13.3l3.657-3.668a1,1,0,0,0-1.417-1.421l-3.657,3.668v-2.957a4.372,4.372,0,0,1,4.366-4.379h4.365Z"
      transform="translate(4.072 8.177)" />
  </g>
</svg>