<svg xmlns="http://www.w3.org/2000/svg" width="152.234" height="149.294" viewBox="0 0 152.234 149.294">
  <g id="dot_shapes" opacity="0.61">
    <g id="Group_4237" data-name="Group 4237">
      <g id="Group_4214" data-name="Group 4214">
        <g id="Group_4164" data-name="Group 4164" transform="translate(0.016)">
          <g id="Group_4159" data-name="Group 4159" transform="translate(0 0.039)">
            <g id="Group_4158" data-name="Group 4158">
              <path id="Path_56854" data-name="Path 56854"
                d="M310.931-.929a2.613,2.613,0,0,1-1.855-.786,2.649,2.649,0,0,1-.755-1.867,2.669,2.669,0,0,1,.759-1.866,2.7,2.7,0,0,1,3.712-.01,2.732,2.732,0,0,1,.763,1.879,2.671,2.671,0,0,1-.763,1.864A2.591,2.591,0,0,1,310.931-.929Z"
                transform="translate(-308.321 6.191)" />
            </g>
          </g>
          <g id="Group_4161" data-name="Group 4161" transform="translate(13.358)">
            <g id="Group_4160" data-name="Group 4160">
              <path id="Path_56855" data-name="Path 56855"
                d="M441.918-3.579a2.637,2.637,0,0,1,2.626-2.648h0a2.628,2.628,0,0,1,2.626,2.648h0a2.642,2.642,0,0,1-2.626,2.65h0A2.649,2.649,0,0,1,441.918-3.579Zm-13.358,0a2.635,2.635,0,0,1,2.623-2.648h0a2.626,2.626,0,0,1,2.627,2.648h0a2.639,2.639,0,0,1-2.627,2.65h0A2.647,2.647,0,0,1,428.56-3.579Zm-13.36,0a2.627,2.627,0,0,1,2.624-2.648h0a2.634,2.634,0,0,1,2.626,2.648h0a2.646,2.646,0,0,1-2.626,2.65h0A2.637,2.637,0,0,1,415.2-3.579Zm-13.358,0a2.627,2.627,0,0,1,2.624-2.648h0a2.634,2.634,0,0,1,2.625,2.648h0a2.647,2.647,0,0,1-2.624,2.65h0A2.639,2.639,0,0,1,401.842-3.579Zm-13.358,0A2.623,2.623,0,0,1,391.1-6.227h0a2.637,2.637,0,0,1,2.635,2.648h0A2.648,2.648,0,0,1,391.1-.929h0A2.637,2.637,0,0,1,388.484-3.579Zm-13.37,0a2.631,2.631,0,0,1,2.624-2.648h0a2.625,2.625,0,0,1,2.624,2.648h0a2.638,2.638,0,0,1-2.625,2.65h0A2.646,2.646,0,0,1,375.114-3.579Zm-13.358,0a2.631,2.631,0,0,1,2.621-2.648h0A2.62,2.62,0,0,1,367-3.579h0a2.633,2.633,0,0,1-2.625,2.647h0A2.637,2.637,0,0,1,361.756-3.579Zm-13.358,0a2.632,2.632,0,0,1,2.625-2.648h0a2.635,2.635,0,0,1,2.623,2.648h0a2.65,2.65,0,0,1-2.623,2.65h0A2.645,2.645,0,0,1,348.4-3.579Zm-13.363,0a2.631,2.631,0,0,1,2.626-2.651h0a2.641,2.641,0,0,1,2.626,2.648h0a2.649,2.649,0,0,1-2.626,2.653h0A2.641,2.641,0,0,1,335.035-3.579Zm-13.356,0A2.624,2.624,0,0,1,324.3-6.227h0a2.631,2.631,0,0,1,2.624,2.648h0A2.642,2.642,0,0,1,324.3-.929h0A2.637,2.637,0,0,1,321.679-3.579Z"
                transform="translate(-321.679 6.23)" />
            </g>
          </g>
          <g id="Group_4163" data-name="Group 4163" transform="translate(146.955 0.037)">
            <g id="Group_4162" data-name="Group 4162">
              <path id="Path_56856" data-name="Path 56856"
                d="M457.9-.932a2.586,2.586,0,0,1-1.852-.779,2.7,2.7,0,0,1-.774-1.868,2.706,2.706,0,0,1,.774-1.869,2.7,2.7,0,0,1,3.714-.01,2.743,2.743,0,0,1,.773,1.879,2.7,2.7,0,0,1-.771,1.868A2.588,2.588,0,0,1,457.9-.932Z"
                transform="translate(-455.276 6.193)" />
            </g>
          </g>
        </g>
        <g id="Group_4171" data-name="Group 4171" transform="translate(0.016 14.582)">
          <g id="Group_4166" data-name="Group 4166" transform="translate(0 0.032)">
            <g id="Group_4165" data-name="Group 4165">
              <path id="Path_56857" data-name="Path 56857"
                d="M310.931,13.652A2.669,2.669,0,0,1,309.08,9.12a2.637,2.637,0,0,1,3.712,3.747A2.682,2.682,0,0,1,310.931,13.652Z"
                transform="translate(-308.321 -8.384)" />
            </g>
          </g>
          <g id="Group_4168" data-name="Group 4168" transform="translate(13.357)">
            <g id="Group_4167" data-name="Group 4167">
              <path id="Path_56858" data-name="Path 56858"
                d="M441.918,11a2.635,2.635,0,0,1,2.626-2.648h0A2.629,2.629,0,0,1,447.168,11h0a2.638,2.638,0,0,1-2.624,2.648h0A2.643,2.643,0,0,1,441.918,11ZM428.56,11a2.638,2.638,0,0,1,2.623-2.648h0A2.638,2.638,0,0,1,433.81,11h0a2.648,2.648,0,0,1-2.627,2.652h0A2.651,2.651,0,0,1,428.56,11ZM415.2,11a2.628,2.628,0,0,1,2.624-2.648h0A2.639,2.639,0,0,1,420.453,11h0a2.648,2.648,0,0,1-2.626,2.645h0A2.636,2.636,0,0,1,415.2,11Zm-13.354,0a2.626,2.626,0,0,1,2.624-2.651h0A2.634,2.634,0,0,1,407.091,11h0a2.641,2.641,0,0,1-2.625,2.648h0A2.628,2.628,0,0,1,401.846,11Zm-13.362,0a2.622,2.622,0,0,1,2.61-2.648h0A2.626,2.626,0,0,1,393.721,11h0a2.635,2.635,0,0,1-2.624,2.645h0A2.634,2.634,0,0,1,388.484,11Zm-13.37,0a2.635,2.635,0,0,1,2.624-2.651h0A2.631,2.631,0,0,1,380.362,11h0a2.636,2.636,0,0,1-2.627,2.648h0A2.644,2.644,0,0,1,375.114,11Zm-13.362,0a2.638,2.638,0,0,1,2.625-2.648h0A2.629,2.629,0,0,1,367,11h0a2.638,2.638,0,0,1-2.627,2.648h0A2.648,2.648,0,0,1,361.752,11ZM348.4,11a2.624,2.624,0,0,1,2.623-2.646h0A2.629,2.629,0,0,1,353.643,11h0a2.645,2.645,0,0,1-2.624,2.645h0A2.632,2.632,0,0,1,348.4,11Zm-13.358,0a2.629,2.629,0,0,1,2.626-2.651h0A2.631,2.631,0,0,1,340.286,11h0a2.641,2.641,0,0,1-2.625,2.648h0A2.634,2.634,0,0,1,335.038,11Zm-13.36,0A2.627,2.627,0,0,1,324.3,8.352h0A2.64,2.64,0,0,1,326.928,11h0a2.651,2.651,0,0,1-2.625,2.649h0A2.645,2.645,0,0,1,321.678,11Z"
                transform="translate(-321.678 -8.352)" />
            </g>
          </g>
          <g id="Group_4170" data-name="Group 4170" transform="translate(146.954 0.032)">
            <g id="Group_4169" data-name="Group 4169">
              <path id="Path_56859" data-name="Path 56859"
                d="M457.9,13.648a2.633,2.633,0,0,1-1.852-.781A2.694,2.694,0,0,1,455.275,11a2.631,2.631,0,1,1,5.262,0,2.7,2.7,0,0,1-.771,1.87A2.661,2.661,0,0,1,457.9,13.648Z"
                transform="translate(-455.275 -8.384)" />
            </g>
          </g>
        </g>
        <g id="Group_4178" data-name="Group 4178" transform="translate(0 28.697)">
          <g id="Group_4173" data-name="Group 4173" transform="translate(0 0.048)">
            <g id="Group_4172" data-name="Group 4172">
              <path id="Path_56860" data-name="Path 56860"
                d="M310.946,27.765A2.651,2.651,0,0,1,309.08,27a2.725,2.725,0,0,1-.775-1.88A2.625,2.625,0,1,1,312.792,27,2.635,2.635,0,0,1,310.946,27.765Z"
                transform="translate(-308.305 -22.515)" />
            </g>
          </g>
          <g id="Group_4175" data-name="Group 4175" transform="translate(13.371)">
            <g id="Group_4174" data-name="Group 4174">
              <path id="Path_56861" data-name="Path 56861"
                d="M441.918,25.116a2.65,2.65,0,0,1,2.626-2.649h0a2.636,2.636,0,0,1,2.623,2.649h0a2.629,2.629,0,0,1-2.626,2.649h0A2.637,2.637,0,0,1,441.918,25.116Zm-13.359,0a2.648,2.648,0,0,1,2.624-2.649h0a2.647,2.647,0,0,1,2.627,2.651h0a2.641,2.641,0,0,1-2.627,2.65h0A2.639,2.639,0,0,1,428.559,25.116Zm-13.357,0a2.632,2.632,0,0,1,2.625-2.647h0a2.638,2.638,0,0,1,2.623,2.645h0a2.632,2.632,0,0,1-2.626,2.649h0A2.623,2.623,0,0,1,415.2,25.118Zm-13.356,0a2.631,2.631,0,0,1,2.62-2.649h0a2.645,2.645,0,0,1,2.625,2.649h0a2.634,2.634,0,0,1-2.624,2.649h0A2.621,2.621,0,0,1,401.846,25.116Zm-13.373,0a2.642,2.642,0,0,1,2.624-2.649h0a2.634,2.634,0,0,1,2.624,2.649h0a2.628,2.628,0,0,1-2.624,2.649h0A2.628,2.628,0,0,1,388.473,25.116Zm-13.359,0a2.643,2.643,0,0,1,2.621-2.649h0a2.638,2.638,0,0,1,2.627,2.651h0a2.628,2.628,0,0,1-2.624,2.647h0A2.634,2.634,0,0,1,375.114,25.116Zm-13.362,0a2.647,2.647,0,0,1,2.625-2.649h0A2.635,2.635,0,0,1,367,25.118h0a2.627,2.627,0,0,1-2.625,2.65h0A2.644,2.644,0,0,1,361.752,25.116Zm-13.356,0a2.649,2.649,0,0,1,2.623-2.649h0a2.647,2.647,0,0,1,2.627,2.651h0a2.642,2.642,0,0,1-2.623,2.65h0A2.638,2.638,0,0,1,348.4,25.116Zm-13.358,0a2.635,2.635,0,0,1,2.623-2.649h0a2.649,2.649,0,0,1,2.626,2.649h0a2.642,2.642,0,0,1-2.626,2.652h0A2.629,2.629,0,0,1,335.038,25.116Zm-13.362,0a2.643,2.643,0,0,1,2.625-2.649h0a2.644,2.644,0,0,1,2.624,2.651h0a2.636,2.636,0,0,1-2.624,2.65h0A2.63,2.63,0,0,1,321.676,25.116Z"
                transform="translate(-321.676 -22.467)" />
            </g>
          </g>
          <g id="Group_4177" data-name="Group 4177" transform="translate(146.97 0.046)">
            <g id="Group_4176" data-name="Group 4176">
              <path id="Path_56862" data-name="Path 56862"
                d="M457.9,27.768A2.65,2.65,0,0,1,456.05,27a2.746,2.746,0,0,1-.775-1.883,2.628,2.628,0,1,1,2.627,2.652Z"
                transform="translate(-455.275 -22.513)" />
            </g>
          </g>
        </g>
        <g id="Group_4185" data-name="Group 4185" transform="translate(0.004 43.276)">
          <g id="Group_4180" data-name="Group 4180" transform="translate(0 0.036)">
            <g id="Group_4179" data-name="Group 4179">
              <path id="Path_56863" data-name="Path 56863"
                d="M310.946,42.346a2.689,2.689,0,0,1-1.866-.769,2.642,2.642,0,0,1,3.714-3.758,2.693,2.693,0,0,1,.761,1.878,2.662,2.662,0,0,1-.761,1.867A2.611,2.611,0,0,1,310.946,42.346Z"
                transform="translate(-308.309 -37.082)" />
            </g>
          </g>
          <g id="Group_4182" data-name="Group 4182" transform="translate(13.37)">
            <g id="Group_4181" data-name="Group 4181">
              <path id="Path_56864" data-name="Path 56864"
                d="M441.918,39.7a2.638,2.638,0,0,1,2.626-2.648h0a2.629,2.629,0,0,1,2.624,2.648h0a2.637,2.637,0,0,1-2.624,2.649h0A2.647,2.647,0,0,1,441.918,39.7Zm-13.358,0a2.626,2.626,0,0,1,2.623-2.646h0A2.637,2.637,0,0,1,433.81,39.7h0a2.642,2.642,0,0,1-2.627,2.646h0A2.632,2.632,0,0,1,428.56,39.695Zm-13.36,0a2.628,2.628,0,0,1,2.624-2.648h0a2.634,2.634,0,0,1,2.626,2.646h0a2.639,2.639,0,0,1-2.626,2.648h0A2.635,2.635,0,0,1,415.2,39.7Zm-13.358,0a2.63,2.63,0,0,1,2.625-2.648h0a2.635,2.635,0,0,1,2.625,2.648h0a2.648,2.648,0,0,1-2.625,2.649h0A2.64,2.64,0,0,1,401.842,39.7Zm-13.371,0a2.634,2.634,0,0,1,2.623-2.648h0a2.638,2.638,0,0,1,2.638,2.648h0a2.649,2.649,0,0,1-2.638,2.649h0A2.648,2.648,0,0,1,388.471,39.7Zm-13.357,0a2.631,2.631,0,0,1,2.623-2.646h0a2.628,2.628,0,0,1,2.625,2.648h0a2.639,2.639,0,0,1-2.624,2.649h0A2.644,2.644,0,0,1,375.114,39.695Zm-13.358,0a2.633,2.633,0,0,1,2.621-2.648h0A2.63,2.63,0,0,1,367,39.7h0a2.639,2.639,0,0,1-2.624,2.646h0A2.646,2.646,0,0,1,361.756,39.7Zm-13.361,0a2.631,2.631,0,0,1,2.624-2.651h0a2.641,2.641,0,0,1,2.627,2.649h0a2.647,2.647,0,0,1-2.627,2.651h0A2.636,2.636,0,0,1,348.395,39.7Zm-13.357,0a2.626,2.626,0,0,1,2.623-2.646h0a2.635,2.635,0,0,1,2.625,2.648h0a2.641,2.641,0,0,1-2.622,2.646h0A2.635,2.635,0,0,1,335.038,39.695Zm-13.359,0a2.626,2.626,0,0,1,2.624-2.648h0a2.631,2.631,0,0,1,2.622,2.646h0a2.638,2.638,0,0,1-2.624,2.648h0A2.634,2.634,0,0,1,321.679,39.7Z"
                transform="translate(-321.679 -37.046)" />
            </g>
          </g>
          <g id="Group_4184" data-name="Group 4184" transform="translate(146.966 0.036)">
            <g id="Group_4183" data-name="Group 4183">
              <path id="Path_56865" data-name="Path 56865"
                d="M457.9,42.346a2.651,2.651,0,0,1-1.853-.769,2.764,2.764,0,0,1-.774-1.88,2.636,2.636,0,0,1,4.489-1.878,2.731,2.731,0,0,1,.773,1.878,2.686,2.686,0,0,1-.771,1.867A2.627,2.627,0,0,1,457.9,42.346Z"
                transform="translate(-455.275 -37.082)" />
            </g>
          </g>
        </g>
        <g id="Group_4192" data-name="Group 4192" transform="translate(0.013 56.506)">
          <g id="Group_4187" data-name="Group 4187" transform="translate(0 0.044)">
            <g id="Group_4186" data-name="Group 4186">
              <path id="Path_56866" data-name="Path 56866"
                d="M310.932,55.573a2.636,2.636,0,0,1-1.852-.766,2.726,2.726,0,0,1-.762-1.88,2.62,2.62,0,1,1,4.474,1.88A2.644,2.644,0,0,1,310.932,55.573Z"
                transform="translate(-308.318 -50.32)" />
            </g>
          </g>
          <g id="Group_4189" data-name="Group 4189" transform="translate(13.361)">
            <g id="Group_4188" data-name="Group 4188">
              <path id="Path_56867" data-name="Path 56867"
                d="M441.918,52.924a2.644,2.644,0,0,1,2.626-2.645h0a2.635,2.635,0,0,1,2.624,2.645h0a2.626,2.626,0,0,1-2.624,2.649h0A2.632,2.632,0,0,1,441.918,52.924Zm-13.358,0a2.636,2.636,0,0,1,2.623-2.648h0a2.64,2.64,0,0,1,2.627,2.648h0a2.63,2.63,0,0,1-2.627,2.649h0A2.627,2.627,0,0,1,428.56,52.924Zm-13.361,0a2.637,2.637,0,0,1,2.625-2.648h0a2.643,2.643,0,0,1,2.626,2.651h0a2.634,2.634,0,0,1-2.626,2.646h0A2.629,2.629,0,0,1,415.2,52.924Zm-13.357,0a2.636,2.636,0,0,1,2.624-2.648h0a2.645,2.645,0,0,1,2.626,2.651h0a2.641,2.641,0,0,1-2.622,2.649h0A2.631,2.631,0,0,1,401.842,52.924Zm-13.371,0a2.647,2.647,0,0,1,2.636-2.651h0a2.638,2.638,0,0,1,2.614,2.651h0a2.628,2.628,0,0,1-2.616,2.649h0A2.639,2.639,0,0,1,388.471,52.927Zm-13.36,0a2.649,2.649,0,0,1,2.627-2.651h0a2.645,2.645,0,0,1,2.626,2.648h0a2.636,2.636,0,0,1-2.627,2.652h0A2.643,2.643,0,0,1,375.111,52.927Zm-13.355,0a2.641,2.641,0,0,1,2.624-2.648h0A2.633,2.633,0,0,1,367,52.924h0a2.628,2.628,0,0,1-2.627,2.649h0A2.632,2.632,0,0,1,361.756,52.927Zm-13.36,0a2.638,2.638,0,0,1,2.623-2.648h0a2.649,2.649,0,0,1,2.627,2.651h0a2.633,2.633,0,0,1-2.623,2.646h0A2.623,2.623,0,0,1,348.4,52.924Zm-13.358,0a2.632,2.632,0,0,1,2.623-2.645h0a2.642,2.642,0,0,1,2.625,2.648h0a2.631,2.631,0,0,1-2.625,2.646h0A2.626,2.626,0,0,1,335.038,52.924Zm-13.359,0a2.635,2.635,0,0,1,2.61-2.651h0a2.647,2.647,0,0,1,2.637,2.648h0a2.638,2.638,0,0,1-2.638,2.649h0A2.62,2.62,0,0,1,321.679,52.927Z"
                transform="translate(-321.679 -50.276)" />
            </g>
          </g>
          <g id="Group_4191" data-name="Group 4191" transform="translate(146.958 0.043)">
            <g id="Group_4190" data-name="Group 4190">
              <path id="Path_56868" data-name="Path 56868"
                d="M457.913,55.573a2.637,2.637,0,0,1-1.863-.766,2.733,2.733,0,0,1-.774-1.88,2.625,2.625,0,1,1,5.25,0,2.716,2.716,0,0,1-.762,1.883A2.639,2.639,0,0,1,457.913,55.573Z"
                transform="translate(-455.276 -50.319)" />
            </g>
          </g>
        </g>
        <g id="Group_4199" data-name="Group 4199" transform="translate(0 71.087)">
          <g id="Group_4194" data-name="Group 4194" transform="translate(0 0.035)">
            <g id="Group_4193" data-name="Group 4193">
              <path id="Path_56869" data-name="Path 56869"
                d="M310.931,70.154a2.579,2.579,0,0,1-1.851-.782,2.71,2.71,0,0,1-.775-1.866,2.663,2.663,0,0,1,.778-1.867,2.691,2.691,0,0,1,3.709-.012,2.645,2.645,0,0,1,0,3.745A2.619,2.619,0,0,1,310.931,70.154Z"
                transform="translate(-308.305 -64.892)" />
            </g>
          </g>
          <g id="Group_4196" data-name="Group 4196" transform="translate(13.371)">
            <g id="Group_4195" data-name="Group 4195">
              <path id="Path_56870" data-name="Path 56870"
                d="M441.918,67.506a2.636,2.636,0,0,1,2.626-2.649h0a2.627,2.627,0,0,1,2.624,2.649h0a2.64,2.64,0,0,1-2.624,2.648h0A2.648,2.648,0,0,1,441.918,67.506Zm-13.358,0a2.629,2.629,0,0,1,2.623-2.649h0a2.635,2.635,0,0,1,2.627,2.649h0a2.643,2.643,0,0,1-2.627,2.645h0A2.63,2.63,0,0,1,428.56,67.506Zm-13.36,0a2.627,2.627,0,0,1,2.624-2.649h0a2.637,2.637,0,0,1,2.626,2.649h0a2.638,2.638,0,0,1-2.626,2.645h0A2.633,2.633,0,0,1,415.2,67.506Zm-13.358,0a2.629,2.629,0,0,1,2.624-2.649h0a2.634,2.634,0,0,1,2.625,2.649h0a2.647,2.647,0,0,1-2.625,2.648h0A2.639,2.639,0,0,1,401.842,67.506Zm-13.371,0a2.634,2.634,0,0,1,2.622-2.649h0a2.639,2.639,0,0,1,2.639,2.649h0a2.648,2.648,0,0,1-2.635,2.648h0A2.644,2.644,0,0,1,388.471,67.506Zm-13.357,0a2.637,2.637,0,0,1,2.624-2.651h0a2.629,2.629,0,0,1,2.624,2.649h0a2.639,2.639,0,0,1-2.627,2.648h0A2.644,2.644,0,0,1,375.114,67.508Zm-13.358,0a2.635,2.635,0,0,1,2.621-2.649h0A2.63,2.63,0,0,1,367,67.506h0a2.638,2.638,0,0,1-2.624,2.648h0A2.641,2.641,0,0,1,361.756,67.506Zm-13.36,0a2.628,2.628,0,0,1,2.627-2.649h0a2.636,2.636,0,0,1,2.623,2.649h0a2.646,2.646,0,0,1-2.627,2.648h0A2.638,2.638,0,0,1,348.4,67.506Zm-13.358,0a2.623,2.623,0,0,1,2.626-2.649h0a2.636,2.636,0,0,1,2.622,2.649h0a2.644,2.644,0,0,1-2.625,2.648h0A2.634,2.634,0,0,1,335.038,67.506Zm-13.362,0a2.629,2.629,0,0,1,2.625-2.649h0a2.634,2.634,0,0,1,2.624,2.649h0a2.644,2.644,0,0,1-2.624,2.648h0A2.64,2.64,0,0,1,321.676,67.506Z"
                transform="translate(-321.676 -64.857)" />
            </g>
          </g>
          <g id="Group_4198" data-name="Group 4198" transform="translate(146.984 0.036)">
            <g id="Group_4197" data-name="Group 4197">
              <path id="Path_56871" data-name="Path 56871"
                d="M457.9,70.154a2.6,2.6,0,0,1-1.852-.782,2.619,2.619,0,1,1,3.714,0A2.6,2.6,0,0,1,457.9,70.154Z"
                transform="translate(-455.289 -64.893)" />
            </g>
          </g>
        </g>
        <g id="Group_4206" data-name="Group 4206" transform="translate(0.004 85.216)">
          <g id="Group_4201" data-name="Group 4201" transform="translate(0 0.033)">
            <g id="Group_4200" data-name="Group 4200">
              <path id="Path_56872" data-name="Path 56872"
                d="M310.945,84.286a2.657,2.657,0,0,1-1.863-4.531,2.71,2.71,0,0,1,3.713,0,2.658,2.658,0,0,1-1.85,4.531Z"
                transform="translate(-308.309 -79.019)" />
            </g>
          </g>
          <g id="Group_4203" data-name="Group 4203" transform="translate(13.37)">
            <g id="Group_4202" data-name="Group 4202">
              <path id="Path_56873" data-name="Path 56873"
                d="M441.918,81.635a2.638,2.638,0,0,1,2.626-2.649h0a2.628,2.628,0,0,1,2.624,2.652h0a2.642,2.642,0,0,1-2.624,2.648h0A2.65,2.65,0,0,1,441.918,81.635Zm-13.358,0a2.638,2.638,0,0,1,2.623-2.649h0a2.636,2.636,0,0,1,2.627,2.649h0a2.647,2.647,0,0,1-2.627,2.648h0A2.641,2.641,0,0,1,428.56,81.635Zm-13.36,0a2.626,2.626,0,0,1,2.624-2.649h0a2.637,2.637,0,0,1,2.626,2.649h0a2.639,2.639,0,0,1-2.626,2.648h0A2.637,2.637,0,0,1,415.2,81.635Zm-13.358,0a2.629,2.629,0,0,1,2.624-2.649h0a2.639,2.639,0,0,1,2.625,2.652h0a2.649,2.649,0,0,1-2.625,2.648h0A2.639,2.639,0,0,1,401.842,81.635Zm-13.371,0a2.634,2.634,0,0,1,2.622-2.649h0a2.623,2.623,0,0,1,2.624,2.649h0a2.627,2.627,0,0,1-2.623,2.648h0A2.639,2.639,0,0,1,388.471,81.635Zm-13.356,0a2.633,2.633,0,0,1,2.623-2.649h0a2.629,2.629,0,0,1,2.624,2.649h0a2.635,2.635,0,0,1-2.624,2.648h0A2.64,2.64,0,0,1,375.115,81.635Zm-13.359,0a2.628,2.628,0,0,1,2.621-2.646h0A2.62,2.62,0,0,1,367,81.635h0a2.632,2.632,0,0,1-2.622,2.648h0A2.643,2.643,0,0,1,361.756,81.635Zm-13.358,0a2.626,2.626,0,0,1,2.621-2.649h0a2.638,2.638,0,0,1,2.627,2.649h0a2.645,2.645,0,0,1-2.623,2.648h0A2.632,2.632,0,0,1,348.4,81.635Zm-13.36,0a2.624,2.624,0,0,1,2.623-2.649h0a2.634,2.634,0,0,1,2.625,2.649h0a2.644,2.644,0,0,1-2.625,2.648h0A2.632,2.632,0,0,1,335.038,81.635Zm-13.359,0a2.626,2.626,0,0,1,2.622-2.649h0a2.635,2.635,0,0,1,2.624,2.649h0a2.641,2.641,0,0,1-2.622,2.648h0A2.634,2.634,0,0,1,321.679,81.635Z"
                transform="translate(-321.679 -78.986)" />
            </g>
          </g>
          <g id="Group_4205" data-name="Group 4205" transform="translate(146.964 0.033)">
            <g id="Group_4204" data-name="Group 4204">
              <path id="Path_56874" data-name="Path 56874"
                d="M457.9,84.286a2.665,2.665,0,0,1-2.629-2.651,2.756,2.756,0,0,1,.777-1.88,2.618,2.618,0,0,1,4.476,1.88,2.636,2.636,0,0,1-2.624,2.651Z"
                transform="translate(-455.273 -79.019)" />
            </g>
          </g>
        </g>
        <g id="Group_4213" data-name="Group 4213" transform="translate(0.013 99.782)">
          <g id="Group_4208" data-name="Group 4208" transform="translate(0 0.038)">
            <g id="Group_4207" data-name="Group 4207">
              <path id="Path_56875" data-name="Path 56875"
                d="M310.932,98.848a2.631,2.631,0,0,1-1.852-.765,2.708,2.708,0,0,1-.762-1.88,2.658,2.658,0,0,1,.762-1.867,2.637,2.637,0,0,1,3.712,3.747A2.622,2.622,0,0,1,310.932,98.848Z"
                transform="translate(-308.318 -93.59)" />
            </g>
          </g>
          <g id="Group_4210" data-name="Group 4210" transform="translate(13.361)">
            <g id="Group_4209" data-name="Group 4209">
              <path id="Path_56876" data-name="Path 56876"
                d="M441.918,96.2a2.65,2.65,0,0,1,2.626-2.651h0a2.636,2.636,0,0,1,2.624,2.651h0a2.631,2.631,0,0,1-2.624,2.648h0A2.639,2.639,0,0,1,441.918,96.2Zm-13.358,0a2.64,2.64,0,0,1,2.623-2.645h0A2.644,2.644,0,0,1,433.81,96.2h0a2.634,2.634,0,0,1-2.627,2.645h0A2.634,2.634,0,0,1,428.56,96.2Zm-13.36,0a2.636,2.636,0,0,1,2.624-2.648h0A2.638,2.638,0,0,1,420.45,96.2h0a2.632,2.632,0,0,1-2.626,2.645h0A2.623,2.623,0,0,1,415.2,96.2Zm-13.358,0a2.634,2.634,0,0,1,2.622-2.648h0a2.64,2.64,0,0,1,2.624,2.648h0a2.629,2.629,0,0,1-2.622,2.645h0A2.625,2.625,0,0,1,401.842,96.2Zm-13.371,0a2.643,2.643,0,0,1,2.626-2.651h0a2.635,2.635,0,0,1,2.624,2.648h0a2.626,2.626,0,0,1-2.628,2.648h0A2.633,2.633,0,0,1,388.471,96.2Zm-13.357,0a2.644,2.644,0,0,1,2.621-2.648h0a2.64,2.64,0,0,1,2.627,2.651h0a2.628,2.628,0,0,1-2.624,2.645h0A2.635,2.635,0,0,1,375.114,96.2Zm-13.359,0a2.641,2.641,0,0,1,2.625-2.651h0A2.638,2.638,0,0,1,367,96.2h0a2.629,2.629,0,0,1-2.627,2.648h0A2.635,2.635,0,0,1,361.755,96.2Zm-13.359,0a2.647,2.647,0,0,1,2.623-2.648h0a2.65,2.65,0,0,1,2.627,2.651h0a2.634,2.634,0,0,1-2.623,2.645h0A2.635,2.635,0,0,1,348.4,96.2Zm-13.358,0a2.631,2.631,0,0,1,2.623-2.645h0a2.642,2.642,0,0,1,2.625,2.648h0a2.632,2.632,0,0,1-2.622,2.645h0A2.619,2.619,0,0,1,335.038,96.2Zm-13.359,0a2.633,2.633,0,0,1,2.624-2.648h0a2.641,2.641,0,0,1,2.622,2.648h0a2.632,2.632,0,0,1-2.624,2.645h0A2.621,2.621,0,0,1,321.679,96.2Z"
                transform="translate(-321.679 -93.552)" />
            </g>
          </g>
          <g id="Group_4212" data-name="Group 4212" transform="translate(146.957 0.043)">
            <g id="Group_4211" data-name="Group 4211">
              <path id="Path_56877" data-name="Path 56877"
                d="M457.9,98.848a2.643,2.643,0,0,1-1.852-.765,2.738,2.738,0,0,1-.775-1.883,2.632,2.632,0,1,1,5.264,0,2.745,2.745,0,0,1-.773,1.88A2.655,2.655,0,0,1,457.9,98.848Z"
                transform="translate(-455.275 -93.595)" />
            </g>
          </g>
        </g>
      </g>
      <g id="Group_4236" data-name="Group 4236" transform="translate(0 115.296)">
        <g id="Group_4221" data-name="Group 4221" transform="translate(0.016)">
          <g id="Group_4216" data-name="Group 4216" transform="translate(0 0.036)">
            <g id="Group_4215" data-name="Group 4215">
              <path id="Path_56878" data-name="Path 56878"
                d="M310.932,114.367a2.588,2.588,0,0,1-1.852-.785,2.672,2.672,0,0,1,0-3.731,2.7,2.7,0,0,1,3.715-.016,2.755,2.755,0,0,1,.763,1.881,2.682,2.682,0,0,1-.764,1.866A2.587,2.587,0,0,1,310.932,114.367Z"
                transform="translate(-308.321 -109.102)" />
            </g>
          </g>
          <g id="Group_4218" data-name="Group 4218" transform="translate(13.358)">
            <g id="Group_4217" data-name="Group 4217">
              <path id="Path_56879" data-name="Path 56879"
                d="M441.918,111.718a2.638,2.638,0,0,1,2.626-2.652h0a2.629,2.629,0,0,1,2.624,2.65h0a2.639,2.639,0,0,1-2.624,2.651h0A2.644,2.644,0,0,1,441.918,111.718Zm-13.358,0a2.635,2.635,0,0,1,2.623-2.649h0a2.629,2.629,0,0,1,2.627,2.649h0a2.644,2.644,0,0,1-2.627,2.649h0A2.644,2.644,0,0,1,428.56,111.718Zm-13.361,0a2.629,2.629,0,0,1,2.625-2.65h0a2.642,2.642,0,0,1,2.629,2.65h0a2.652,2.652,0,0,1-2.629,2.651h0A2.638,2.638,0,0,1,415.2,111.716Zm-13.353,0a2.623,2.623,0,0,1,2.62-2.65h0a2.638,2.638,0,0,1,2.625,2.652h0a2.637,2.637,0,0,1-2.621,2.645h0A2.626,2.626,0,0,1,401.846,111.716Zm-13.362,0a2.626,2.626,0,0,1,2.61-2.65h0a2.641,2.641,0,0,1,2.638,2.652h0a2.648,2.648,0,0,1-2.639,2.649h0A2.631,2.631,0,0,1,388.484,111.716Zm-13.37,0a2.634,2.634,0,0,1,2.621-2.65h0a2.631,2.631,0,0,1,2.627,2.652h0a2.634,2.634,0,0,1-2.624,2.645h0A2.638,2.638,0,0,1,375.114,111.716Zm-13.359,0a2.637,2.637,0,0,1,2.625-2.652h0a2.631,2.631,0,0,1,2.624,2.65h0a2.641,2.641,0,0,1-2.627,2.651h0A2.647,2.647,0,0,1,361.755,111.718Zm-13.359,0a2.639,2.639,0,0,1,2.623-2.65h0a2.642,2.642,0,0,1,2.627,2.652h0a2.646,2.646,0,0,1-2.623,2.649h0A2.649,2.649,0,0,1,348.4,111.716Zm-13.358,0a2.625,2.625,0,0,1,2.623-2.647h0a2.635,2.635,0,0,1,2.625,2.649h0a2.644,2.644,0,0,1-2.622,2.649h0A2.64,2.64,0,0,1,335.038,111.716Zm-13.359,0a2.627,2.627,0,0,1,2.626-2.652h0a2.635,2.635,0,0,1,2.623,2.65h0a2.649,2.649,0,0,1-2.627,2.651h0A2.635,2.635,0,0,1,321.679,111.718Z"
                transform="translate(-321.679 -109.066)" />
            </g>
          </g>
          <g id="Group_4220" data-name="Group 4220" transform="translate(146.954 0.035)">
            <g id="Group_4219" data-name="Group 4219">
              <path id="Path_56880" data-name="Path 56880"
                d="M457.9,114.367a2.583,2.583,0,0,1-1.852-.785,2.639,2.639,0,0,1,3.717-3.747,2.762,2.762,0,0,1,.77,1.881,2.682,2.682,0,0,1-.773,1.866A2.586,2.586,0,0,1,457.9,114.367Z"
                transform="translate(-455.275 -109.101)" />
            </g>
          </g>
        </g>
        <g id="Group_4228" data-name="Group 4228" transform="translate(0.014 14.582)">
          <g id="Group_4223" data-name="Group 4223" transform="translate(0 0.034)">
            <g id="Group_4222" data-name="Group 4222">
              <path id="Path_56881" data-name="Path 56881"
                d="M310.932,128.942a2.638,2.638,0,0,1-1.852-.779,2.687,2.687,0,0,1,0-3.747,2.618,2.618,0,0,1,4.475,1.879,2.686,2.686,0,0,1-.761,1.868A2.658,2.658,0,0,1,310.932,128.942Z"
                transform="translate(-308.319 -123.682)" />
            </g>
          </g>
          <g id="Group_4225" data-name="Group 4225" transform="translate(13.36)">
            <g id="Group_4224" data-name="Group 4224">
              <path id="Path_56882" data-name="Path 56882"
                d="M441.916,126.295a2.636,2.636,0,0,1,2.628-2.647h0a2.626,2.626,0,0,1,2.624,2.647h0a2.637,2.637,0,0,1-2.624,2.65h0A2.651,2.651,0,0,1,441.916,126.295Zm-13.351,0a2.629,2.629,0,0,1,2.618-2.647h0a2.636,2.636,0,0,1,2.627,2.647h0a2.647,2.647,0,0,1-2.627,2.647h0A2.632,2.632,0,0,1,428.565,126.295Zm-13.365,0a2.627,2.627,0,0,1,2.624-2.647h0a2.634,2.634,0,0,1,2.626,2.647h0a2.645,2.645,0,0,1-2.626,2.65h0A2.64,2.64,0,0,1,415.2,126.295Zm-13.358,0a2.626,2.626,0,0,1,2.625-2.647h0a2.637,2.637,0,0,1,2.625,2.647h0a2.648,2.648,0,0,1-2.625,2.65h0A2.638,2.638,0,0,1,401.842,126.295Zm-13.355,0a2.62,2.62,0,0,1,2.607-2.647h0a2.628,2.628,0,0,1,2.627,2.647h0a2.636,2.636,0,0,1-2.624,2.65h0A2.63,2.63,0,0,1,388.487,126.295Zm-13.373,0a2.633,2.633,0,0,1,2.624-2.647h0a2.627,2.627,0,0,1,2.624,2.647h0a2.638,2.638,0,0,1-2.624,2.65h0A2.642,2.642,0,0,1,375.114,126.295Zm-13.358,0a2.632,2.632,0,0,1,2.621-2.647h0A2.63,2.63,0,0,1,367,126.3h0a2.638,2.638,0,0,1-2.624,2.645h0A2.641,2.641,0,0,1,361.756,126.295Zm-13.36.005a2.625,2.625,0,0,1,2.627-2.652h0a2.635,2.635,0,0,1,2.623,2.647h0a2.647,2.647,0,0,1-2.627,2.65h0A2.634,2.634,0,0,1,348.4,126.3Zm-13.358,0a2.623,2.623,0,0,1,2.623-2.652h0a2.635,2.635,0,0,1,2.625,2.647h0a2.644,2.644,0,0,1-2.625,2.65h0A2.632,2.632,0,0,1,335.038,126.3Zm-13.359-.005a2.626,2.626,0,0,1,2.624-2.647h0a2.631,2.631,0,0,1,2.623,2.647h0a2.645,2.645,0,0,1-2.623,2.65h0A2.635,2.635,0,0,1,321.679,126.295Z"
                transform="translate(-321.679 -123.648)" />
            </g>
          </g>
          <g id="Group_4227" data-name="Group 4227" transform="translate(146.957 0.031)">
            <g id="Group_4226" data-name="Group 4226">
              <path id="Path_56883" data-name="Path 56883"
                d="M457.9,128.942a2.64,2.64,0,0,1-1.852-.779,2.691,2.691,0,0,1-.774-1.868,2.632,2.632,0,1,1,5.263,0,2.691,2.691,0,0,1-.775,1.868A2.635,2.635,0,0,1,457.9,128.942Z"
                transform="translate(-455.276 -123.679)" />
            </g>
          </g>
        </g>
        <g id="Group_4235" data-name="Group 4235" transform="translate(0 28.697)">
          <g id="Group_4230" data-name="Group 4230" transform="translate(0 0.047)">
            <g id="Group_4229" data-name="Group 4229">
              <path id="Path_56884" data-name="Path 56884"
                d="M310.945,143.061a2.675,2.675,0,0,1-1.865-.767,2.636,2.636,0,1,1,3.712-3.745,2.674,2.674,0,0,1,0,3.745A2.647,2.647,0,0,1,310.945,143.061Z"
                transform="translate(-308.305 -137.81)" />
            </g>
          </g>
          <g id="Group_4232" data-name="Group 4232" transform="translate(13.373)">
            <g id="Group_4231" data-name="Group 4231">
              <path id="Path_56885" data-name="Path 56885"
                d="M441.918,140.413a2.644,2.644,0,0,1,2.626-2.65h0a2.637,2.637,0,0,1,2.623,2.65h0a2.625,2.625,0,0,1-2.623,2.648h0A2.637,2.637,0,0,1,441.918,140.413Zm-13.359,0a2.644,2.644,0,0,1,2.624-2.65h0a2.647,2.647,0,0,1,2.627,2.65h0a2.641,2.641,0,0,1-2.627,2.651h0A2.644,2.644,0,0,1,428.559,140.413Zm-13.36,0a2.64,2.64,0,0,1,2.625-2.65h0a2.652,2.652,0,0,1,2.629,2.65h0a2.645,2.645,0,0,1-2.629,2.651h0A2.634,2.634,0,0,1,415.2,140.413Zm-13.353,0a2.633,2.633,0,0,1,2.624-2.65h0a2.643,2.643,0,0,1,2.621,2.65h0a2.635,2.635,0,0,1-2.625,2.648h0A2.622,2.622,0,0,1,401.846,140.413Zm-13.375,0a2.645,2.645,0,0,1,2.623-2.65h0a2.638,2.638,0,0,1,2.627,2.65h0a2.626,2.626,0,0,1-2.624,2.648h0A2.636,2.636,0,0,1,388.471,140.413Zm-13.357,0a2.642,2.642,0,0,1,2.623-2.65h0a2.639,2.639,0,0,1,2.625,2.653h0a2.633,2.633,0,0,1-2.624,2.648h0A2.642,2.642,0,0,1,375.114,140.413Zm-13.359,0a2.646,2.646,0,0,1,2.622-2.65h0a2.637,2.637,0,0,1,2.627,2.65h0a2.627,2.627,0,0,1-2.624,2.648h0A2.635,2.635,0,0,1,361.755,140.413Zm-13.359,0a2.644,2.644,0,0,1,2.623-2.65h0a2.643,2.643,0,0,1,2.624,2.65h0a2.631,2.631,0,0,1-2.624,2.648h0A2.632,2.632,0,0,1,348.4,140.413Zm-13.358,0a2.636,2.636,0,0,1,2.626-2.65h0a2.644,2.644,0,0,1,2.622,2.646h0a2.638,2.638,0,0,1-2.629,2.652h0A2.623,2.623,0,0,1,335.038,140.413Zm-13.36,0a2.634,2.634,0,0,1,2.625-2.65h0a2.651,2.651,0,0,1,2.625,2.65h0a2.644,2.644,0,0,1-2.625,2.651h0A2.636,2.636,0,0,1,321.678,140.413Z"
                transform="translate(-321.678 -137.763)" />
            </g>
          </g>
          <g id="Group_4234" data-name="Group 4234" transform="translate(146.97 0.045)">
            <g id="Group_4233" data-name="Group 4233">
              <path id="Path_56886" data-name="Path 56886"
                d="M457.9,143.061a2.644,2.644,0,0,1-1.852-.767,2.738,2.738,0,0,1-.775-1.881,2.626,2.626,0,1,1,4.489,1.881A2.667,2.667,0,0,1,457.9,143.061Z"
                transform="translate(-455.275 -137.808)" />
            </g>
          </g>
        </g>
      </g>
    </g>
  </g>
</svg>