<svg xmlns="http://www.w3.org/2000/svg" width="39.625" height="42.862" viewBox="0 0 39.625 42.862">
  <g id="Group_14620" data-name="Group 14620" transform="translate(-10.89 -311.963)">
    <g id="Group_7782" data-name="Group 7782" transform="translate(21.187 311.963)">
      <g id="Group_7781" data-name="Group 7781">
        <path id="Path_61851" data-name="Path 61851"
          d="M41.455,309.317a6.23,6.23,0,0,0-6.2,6.257v3.315H20.528v-3.315a4.538,4.538,0,1,1,9.075,0,.833.833,0,1,0,1.667,0,6.2,6.2,0,1,0-12.408,0V336.82a.844.844,0,0,0,.833.887.833.833,0,0,0,.833-.841v-2.1H35.3v2.1a.833.833,0,1,0,1.667,0V315.574a4.515,4.515,0,1,1,9.028,0,.833.833,0,1,0,1.667,0A6.231,6.231,0,0,0,41.455,309.317ZM35.3,332.99H20.528V330H35.3Zm0-4.669H20.528v-2.988H35.3Zm0-4.763H20.528V320.57H35.3Z"
          transform="translate(-18.858 -309.317)" />
      </g>
    </g>
    <g id="Group_7784" data-name="Group 7784" transform="translate(10.932 343.899)">
      <g id="Group_7783" data-name="Group 7783">
        <path id="Path_61852" data-name="Path 61852"
          d="M50.443,338.35a.984.984,0,0,0-1.238-.386c-4.645,1.67-6.915.857-9.342,0a11.736,11.736,0,0,0-9.5,0c-4.645,1.67-6.917.857-9.342,0a11.861,11.861,0,0,0-9.548,0,.737.737,0,0,0-.465,1.028,1.034,1.034,0,0,0,1.238.385,9.631,9.631,0,0,1,8,.043,15.074,15.074,0,0,0,5.213,1.071,16.577,16.577,0,0,0,5.626-1.114,9.628,9.628,0,0,1,8,.043,15.074,15.074,0,0,0,5.213,1.071,16.576,16.576,0,0,0,5.626-1.114A.761.761,0,0,0,50.443,338.35Z"
          transform="translate(-10.932 -336.957)" />
      </g>
    </g>
    <g id="Group_7786" data-name="Group 7786" transform="translate(10.89 351.292)">
      <g id="Group_7785" data-name="Group 7785">
        <path id="Path_61853" data-name="Path 61853"
          d="M50.4,344.259a.984.984,0,0,0-1.238-.385c-4.644,1.67-6.914.856-9.34,0a11.725,11.725,0,0,0-9.495,0c-4.644,1.67-6.916.856-9.34,0a11.839,11.839,0,0,0-9.548,0,.736.736,0,0,0-.464,1.027,1.13,1.13,0,0,0,1.29.386,9.629,9.629,0,0,1,8,.042,15.07,15.07,0,0,0,5.213,1.071,16.591,16.591,0,0,0,5.625-1.113,9.627,9.627,0,0,1,8,.042,15.07,15.07,0,0,0,5.213,1.071,16.591,16.591,0,0,0,5.625-1.113A.706.706,0,0,0,50.4,344.259Z"
          transform="translate(-10.89 -342.867)" />
      </g>
    </g>
  </g>
</svg>