<?xml version="1.0" encoding="UTF-8" standalone="no" ?>
<!DOCTYPE svg PUBLIC "-//W3C//DTD SVG 1.1//EN" "http://www.w3.org/Graphics/SVG/1.1/DTD/svg11.dtd">
<svg xmlns="http://www.w3.org/2000/svg" xmlns:xlink="http://www.w3.org/1999/xlink" version="1.1" width="1080" height="1080" viewBox="0 0 1080 1080" xml:space="preserve">
<desc>Created with Fabric.js 5.2.4</desc>
<defs>
</defs>
<rect x="0" y="0" width="100%" height="100%" fill="transparent"></rect>
<g transform="matrix(1 0 0 1 540 540)" id="f1508b6b-1a17-44db-ae4b-0919cf7b70da"  >
<rect style="stroke: none; stroke-width: 1; stroke-dasharray: none; stroke-linecap: butt; stroke-dashoffset: 0; stroke-linejoin: miter; stroke-miterlimit: 4; fill: rgb(255,255,255); fill-rule: nonzero; opacity: 1; visibility: hidden;" vector-effect="non-scaling-stroke"  x="-540" y="-540" rx="0" ry="0" width="1080" height="1080" />
</g>
<g transform="matrix(1 0 0 1 540 540)" id="df9b31bc-4959-48c6-9a2e-0096572cd2b6"  >
</g>
<g transform="matrix(133.32 0 0 133.32 540 540)"  >
<g style=""   >
		<g transform="matrix(1 0 0 1 0.08 -3.02)" id="Path_2589"  >
<path style="stroke: none; stroke-width: 1; stroke-dasharray: none; stroke-linecap: butt; stroke-dashoffset: 0; stroke-linejoin: miter; stroke-miterlimit: 4; fill: rgb(255,255,255); fill-rule: nonzero; opacity: 1;" vector-effect="non-scaling-stroke"  transform=" translate(-4.13, -489.27)" d="M 5.633 488.577 L 4.525 488.577 L 2.6250000000000004 489.969 L 3.734 489.969 Z" stroke-linecap="round" />
</g>
		<g transform="matrix(1 0 0 1 1.99 -3.02)" id="Path_2590"  >
<path style="stroke: none; stroke-width: 1; stroke-dasharray: none; stroke-linecap: butt; stroke-dashoffset: 0; stroke-linejoin: miter; stroke-miterlimit: 4; fill: rgb(255,255,255); fill-rule: nonzero; opacity: 1;" vector-effect="non-scaling-stroke"  transform=" translate(-6.04, -489.27)" d="M 7.548 488.577 L 6.424 488.577 L 4.524000000000001 489.969 L 5.633 489.969 Z" stroke-linecap="round" />
</g>
		<g transform="matrix(1 0 0 1 3.21 -2.93)" id="Path_2591"  >
<path style="stroke: none; stroke-width: 1; stroke-dasharray: none; stroke-linecap: butt; stroke-dashoffset: 0; stroke-linejoin: miter; stroke-miterlimit: 4; fill: rgb(255,255,255); fill-rule: nonzero; opacity: 1;" vector-effect="non-scaling-stroke"  transform=" translate(-7.26, -489.36)" d="M 6.424 489.969 L 8.1 489.969 L 8.1 488.80899999999997 C 8.098702777891184 488.7916633407014 8.09534581265843 488.7745428180143 8.09 488.758 Z" stroke-linecap="round" />
</g>
		<g transform="matrix(1 0 0 1 -1.83 -3.02)" id="Path_2592"  >
<path style="stroke: none; stroke-width: 1; stroke-dasharray: none; stroke-linecap: butt; stroke-dashoffset: 0; stroke-linejoin: miter; stroke-miterlimit: 4; fill: rgb(255,255,255); fill-rule: nonzero; opacity: 1;" vector-effect="non-scaling-stroke"  transform=" translate(-2.22, -489.27)" d="M 0.712 489.969 L 1.836 489.969 L 3.7359999999999998 488.577 L 2.627 488.577 Z" stroke-linecap="round" />
</g>
		<g transform="matrix(1 0 0 1 0 0.93)" id="Path_2593"  >
<path style="stroke: none; stroke-width: 1; stroke-dasharray: none; stroke-linecap: butt; stroke-dashoffset: 0; stroke-linejoin: miter; stroke-miterlimit: 4; fill: rgb(255,255,255); fill-rule: nonzero; opacity: 1;" vector-effect="non-scaling-stroke"  transform=" translate(-4.05, -493.22)" d="M 0 495.768 C 0.0016472324975569629 495.8973968707884 0.10759742122618549 496.0011118234679 0.23700000000000004 496 L 7.864 496 C 7.993402578773814 496.0011118234679 8.099352767502442 495.8973968707884 8.100999999999999 495.768 L 8.100999999999999 490.433 L 0 490.433 Z M 2.864 491.592 C 2.8649361566667473 491.5085514178581 2.9108094424238686 491.43209594159623 2.984 491.392 C 3.0582005668128005 491.34892078668423 3.1497994331871992 491.34892078668423 3.224 491.392 L 5.6 492.785 C 5.671962367444659 492.82586676890656 5.716421833083974 492.90224327743863 5.716421833083974 492.985 C 5.716421833083974 493.0677567225614 5.671962367444659 493.14413323109346 5.6 493.185 L 3.2269999999999994 494.577 C 3.152529190955904 494.6190635365357 3.0614708090440947 494.6190635365357 2.986999999999999 494.577 C 2.913809442423868 494.53690405840376 2.8679361566667465 494.4604485821419 2.866999999999999 494.377 Z" stroke-linecap="round" />
</g>
		<g transform="matrix(1 0 0 1 -3.13 -3.05)" id="Path_2594"  >
<path style="stroke: none; stroke-width: 1; stroke-dasharray: none; stroke-linecap: butt; stroke-dashoffset: 0; stroke-linejoin: miter; stroke-miterlimit: 4; fill: rgb(255,255,255); fill-rule: nonzero; opacity: 1;" vector-effect="non-scaling-stroke"  transform=" translate(-0.92, -489.24)" d="M 0.237 488.577 C 0.17476639130039653 488.57619983767466 0.11477803054710997 488.60022539269966 0.07030193019888614 488.64376317869454 C 0.025825829850662313 488.6873009646895 0.0005268113589978196 488.746763477111 -2.7755575615628914e-17 488.809 L 0 489.90900000000005 L 1.836 488.57500000000005 Z" stroke-linecap="round" />
</g>
		<g transform="matrix(1 0 0 1 0.13 0.69)" id="Path_2595"  >
<path style="stroke: none; stroke-width: 1; stroke-dasharray: none; stroke-linecap: butt; stroke-dashoffset: 0; stroke-linejoin: miter; stroke-miterlimit: 4; fill: rgb(255,255,255); fill-rule: nonzero; opacity: 1;" vector-effect="non-scaling-stroke"  transform=" translate(-4.18, -492.98)" d="M 3.339 492 L 3.339 493.964 L 5.014 492.98199999999997 Z" stroke-linecap="round" />
</g>
</g>
</g>
</svg>