<?xml version="1.0" encoding="UTF-8" standalone="no" ?>
<!DOCTYPE svg PUBLIC "-//W3C//DTD SVG 1.1//EN" "http://www.w3.org/Graphics/SVG/1.1/DTD/svg11.dtd">
<svg xmlns="http://www.w3.org/2000/svg" xmlns:xlink="http://www.w3.org/1999/xlink" version="1.1" width="1080" height="1080" viewBox="0 0 1080 1080" xml:space="preserve">
<desc>Created with Fabric.js 5.2.4</desc>
<defs>
</defs>
<g transform="matrix(1 0 0 1 540 540)" id="f205327a-2ced-402a-8532-576b10377a26"  >
<rect style="stroke: none; stroke-width: 1; stroke-dasharray: none; stroke-linecap: butt; stroke-dashoffset: 0; stroke-linejoin: miter; stroke-miterlimit: 4; fill: rgb(255,255,255); fill-rule: nonzero; opacity: 1; visibility: hidden;" vector-effect="non-scaling-stroke"  x="-540" y="-540" rx="0" ry="0" width="1080" height="1080" />
</g>
<g transform="matrix(1 0 0 1 540 540)" id="a8c4c523-353a-4e1f-a4f9-5d648ea48d96"  >
</g>
<g transform="matrix(64.34 0 0 64.34 540 540)" id="Path_20865"  >
<path style="stroke: none; stroke-width: 1; stroke-dasharray: none; stroke-linecap: butt; stroke-dashoffset: 0; stroke-linejoin: miter; stroke-miterlimit: 4; fill: rgb(255,255,255); fill-rule: nonzero; opacity: 1;"  transform=" translate(-8.39, -421.78)" d="M 15.386 415.931 L 1.4 415.931 C 0.6548466528646762 415.90454480943964 0.02873822194161013 416.4859312095825 2.220446049250313e-16 417.231 L 0 426.331 C 0.0287382219416097 427.07606879041754 0.6548466528646762 427.65745519056037 1.4 427.63100000000003 L 15.386 427.63100000000003 C 16.13115334713532 427.65745519056037 16.75726177805839 427.07606879041754 16.785999999999998 426.331 L 16.785999999999998 417.231 C 16.75726177805839 416.4859312095825 16.13115334713532 415.90454480943964 15.385999999999997 415.931 Z M 1.3979999999999997 416.58099999999996 L 15.386 416.58099999999996 C 15.435132029843073 416.5849986313525 15.483721662168549 416.5940463559924 15.530999999999999 416.60799999999995 C 14.319999999999999 417.6379999999999 10.305 421.04999999999995 8.899 422.227 C 8.61417131247547 422.49609035780054 8.168828687524528 422.49609035780054 7.8839999999999995 422.227 C 6.478999999999999 421.051 2.462999999999999 417.638 1.2519999999999998 416.609 C 1.3002151827606485 416.594503481302 1.349821411897313 416.5851185190329 1.3999999999999995 416.581 Z M 0.6979999999999997 426.32699999999994 L 0.6979999999999997 417.2269999999999 C 0.7017605742160679 417.1656887463046 0.7149138609433355 417.1053185328641 0.7369999999999998 417.04799999999994 C 1.6639999999999997 417.83599999999996 4.466 420.2169999999999 6.283 421.74799999999993 C 4.473 423.2 1.671 425.668 0.736 426.5 C 0.7153244246867603 426.44448451608395 0.7031864569964522 426.38615483801664 0.7000000000000001 426.327 Z M 15.385 426.9769999999999 L 1.4 426.9769999999999 C 1.3463556857550267 426.97310330462506 1.2933392147442269 426.9630368860787 1.242 426.94699999999995 C 2.208 426.0919999999999 5.0280000000000005 423.6089999999999 6.807 422.19599999999997 L 7.418 422.70899999999995 C 7.975449368047786 423.20155817511437 8.812550631952215 423.20155817511437 9.370000000000001 422.70899999999995 L 9.981000000000002 422.19499999999994 C 11.760000000000002 423.6089999999999 14.581000000000001 426.0949999999999 15.546000000000003 426.9459999999999 C 15.494014897835358 426.9621885284591 15.440318562138668 426.97225659140224 15.386 426.976 Z M 16.085 426.32699999999994 C 16.080895597502167 426.3848249548229 16.068432742141496 426.44174988876756 16.048000000000002 426.4959999999999 C 15.113000000000001 425.66799999999995 12.311000000000002 423.1959999999999 10.500000000000002 421.75499999999994 C 12.317000000000002 420.2199999999999 15.118000000000002 417.83899999999994 16.046000000000003 417.05499999999995 C 16.06834249615917 417.1125884826326 16.08150280483289 417.173328368819 16.085000000000004 417.23499999999996 Z" stroke-linecap="round" />
</g>
</svg>