<?xml version="1.0" encoding="UTF-8" standalone="no" ?>
<!DOCTYPE svg PUBLIC "-//W3C//DTD SVG 1.1//EN" "http://www.w3.org/Graphics/SVG/1.1/DTD/svg11.dtd">
<svg xmlns="http://www.w3.org/2000/svg" xmlns:xlink="http://www.w3.org/1999/xlink" version="1.1" width="1080" height="1080" viewBox="0 0 1080 1080" xml:space="preserve">
<desc>Created with Fabric.js 5.2.4</desc>
<defs>
</defs>
<rect x="0" y="0" width="100%" height="100%" fill="transparent"></rect>
<g transform="matrix(1 0 0 1 540 540)" id="f1508b6b-1a17-44db-ae4b-0919cf7b70da"  >
<rect style="stroke: none; stroke-width: 1; stroke-dasharray: none; stroke-linecap: butt; stroke-dashoffset: 0; stroke-linejoin: miter; stroke-miterlimit: 4; fill: rgb(255,255,255); fill-rule: nonzero; opacity: 1; visibility: hidden;" vector-effect="non-scaling-stroke"  x="-540" y="-540" rx="0" ry="0" width="1080" height="1080" />
</g>
<g transform="matrix(1 0 0 1 540 540)" id="df9b31bc-4959-48c6-9a2e-0096572cd2b6"  >
</g>
<g transform="matrix(122.94 0 0 122.94 540 540)" id="Path_2560"  >
<path style="stroke: none; stroke-width: 1; stroke-dasharray: none; stroke-linecap: butt; stroke-dashoffset: 0; stroke-linejoin: miter; stroke-miterlimit: 4; fill: rgb(255,255,255); fill-rule: nonzero; opacity: 1;"  transform=" translate(-77.71, -467.44)" d="M 77.87 461.488 C 76.69797321138071 461.4298699980062 75.55248641105347 461.8495924981814 74.69547600498521 462.6511903114667 C 73.83846559891697 463.452788124752 73.34322500538379 464.56770683990305 73.32300000000001 465.741 C 73.32300000000001 468.464 76.02300000000001 470.441 77.534 473.282 C 77.5713441131447 473.34853643737483 77.64170006366254 473.3897285131316 77.718 473.3897285131316 C 77.79429993633747 473.3897285131316 77.8646558868553 473.34853643737483 77.902 473.282 C 79.27 470.72499999999997 81.609 469.01 82.043 466.546 C 82.24667479652126 465.3060805825635 81.9047447709388 464.0386241677015 81.10508935638404 463.06937971842814 C 80.30543394182926 462.1001352691547 79.1260314114078 461.5236185068616 77.87 461.488 Z M 77.718 467.971 C 76.49612417064967 467.93262624186605 75.53292097844535 466.9176718430278 75.55848774595434 465.69546096594354 C 75.58405451346331 464.4732500888593 76.58885910401153 463.49946337914974 77.811270797103 463.5122203481129 C 79.0336824901945 463.52497731707615 80.01794576935805 464.519521744683 80.018 465.742 C 79.9966324341064 466.9917290547513 78.96777660436153 467.98837722373895 77.718 467.97 Z" stroke-linecap="round" />
</g>
</svg>