<?xml version="1.0" encoding="UTF-8" standalone="no" ?>
<!DOCTYPE svg PUBLIC "-//W3C//DTD SVG 1.1//EN" "http://www.w3.org/Graphics/SVG/1.1/DTD/svg11.dtd">
<svg xmlns="http://www.w3.org/2000/svg" xmlns:xlink="http://www.w3.org/1999/xlink" version="1.1" width="1080" height="1080" viewBox="0 0 1080 1080" xml:space="preserve">
<desc>Created with Fabric.js 5.2.4</desc>
<defs>
</defs>
<g transform="matrix(1 0 0 1 540 540)" id="09a232a9-0684-4063-8f32-6cbbd3f43ddb"  >
<rect style="stroke: none; stroke-width: 1; stroke-dasharray: none; stroke-linecap: butt; stroke-dashoffset: 0; stroke-linejoin: miter; stroke-miterlimit: 4; fill: rgb(255,255,255); fill-rule: nonzero; opacity: 1; visibility: hidden;" vector-effect="non-scaling-stroke"  x="-540" y="-540" rx="0" ry="0" width="1080" height="1080" />
</g>
<g transform="matrix(1 0 0 1 540 540)" id="1875f415-cdf6-46b3-a63c-fe20ccb59bcb"  >
</g>
<g transform="matrix(NaN NaN NaN NaN 0 0)"  >
<g style=""   >
</g>
</g>
<g transform="matrix(86.15 0 0 86.15 540 540)" id="Path_2600"  >
<path style="stroke: none; stroke-width: 1; stroke-dasharray: none; stroke-linecap: butt; stroke-dashoffset: 0; stroke-linejoin: miter; stroke-miterlimit: 4; fill: rgb(255,255,255); fill-rule: nonzero; opacity: 1;"  transform=" translate(-6.27, -427.97)" d="M 11.621 423.173 C 11.03755041396382 422.43349440387084 10.147955397571717 422.00140539590893 9.206 422 C 8.118901068608336 422.0323569813162 7.125730204035474 422.62425050875584 6.579999999999999 423.565 C 6.465214069066752 423.74062096063193 6.36102827807064 423.92294609487516 6.268 424.111 C 6.174971721929359 423.92294609487516 6.070785930933247 423.74062096063193 5.955999999999999 423.565 C 5.410269795964525 422.62425050875584 4.417098931391664 422.0323569813162 3.330000000000001 422 C 2.388044602428282 422.00140539590893 1.4984495860361808 422.43349440387084 0.915 423.173 C 0.30599854823522366 423.9500111297938 -0.017087963263464845 424.9129148640636 -4.440892098500626e-16 425.9 C 0.03249503304463827 427.11312803558525 0.48569313483188936 428.27723205211055 1.2820000000000014 429.193 C 2.266553913904429 430.351295403754 3.3390749575563445 431.43184029561286 4.489999999999991 432.425 C 4.9750000000000005 432.87100000000004 5.477 433.332 6.011 433.836 L 6.027 433.851 C 6.161919204115839 433.9815600170612 6.376080795884161 433.9815600170612 6.511 433.851 L 6.527 433.836 C 7.061 433.336 7.563000000000001 432.87100000000004 8.048 432.425 C 9.198925042443648 431.43184029561286 10.271446086095569 430.3512954037541 11.255999999999998 429.193 C 12.052306865168111 428.27723205211055 12.50550496695536 427.11312803558525 12.538 425.9 C 12.55451886689231 424.9126732096156 12.2307176375364 423.94974414478077 11.621000000000002 423.173 Z M 7.57 431.818 C 7.152 432.202 6.721 432.59799999999996 6.2700000000000005 433.02299999999997 C 5.816000000000001 432.59799999999996 5.386 432.20199999999994 4.970000000000001 431.818 C 2.418 429.477 0.735 427.93 0.735 425.9 C 0.719006965779615 425.1045123210802 0.9771108460438014 424.3277290973029 1.4659999999999989 423.7 C 1.9163278438156754 423.1292605082774 2.6029938303554854 422.79587385708726 3.3299999999999996 422.795 C 4.172534019186106 422.8290100851052 4.938314095307191 423.29406942092413 5.356999999999999 424.026 C 5.5987464351729015 424.4003285808313 5.787852212837558 424.80613208236787 5.9190000000000005 425.232 C 5.957939240687509 425.39374331821176 6.10263544412505 425.50773850226824 6.269 425.50773850226824 C 6.435364555874951 425.50773850226824 6.5800607593124925 425.39374331821176 6.619000000000001 425.232 C 6.750147787162443 424.80613208236787 6.9392535648271 424.4003285808313 7.181000000000001 424.026 C 7.59968590469281 423.29406942092413 8.365465980813896 422.8290100851052 9.208000000000002 422.795 C 9.935006169644517 422.79587385708726 10.621672156184324 423.1292605082774 11.072000000000001 423.7 C 11.560889153956202 424.3277290973029 11.818993034220387 425.1045123210802 11.803000000000003 425.9 C 11.8 427.93 10.118 429.477 7.571 431.818 Z" stroke-linecap="round" />
</g>
</svg>