<?xml version="1.0" encoding="UTF-8" standalone="no" ?>
<!DOCTYPE svg PUBLIC "-//W3C//DTD SVG 1.1//EN" "http://www.w3.org/Graphics/SVG/1.1/DTD/svg11.dtd">
<svg xmlns="http://www.w3.org/2000/svg" xmlns:xlink="http://www.w3.org/1999/xlink" version="1.1" width="1080" height="1080" viewBox="0 0 1080 1080" xml:space="preserve">
<desc>Created with Fabric.js 5.2.4</desc>
<defs>
</defs>
<rect x="0" y="0" width="100%" height="100%" fill="transparent"></rect>
<g transform="matrix(1 0 0 1 540 540)" id="1875f415-cdf6-46b3-a63c-fe20ccb59bcb"  >
</g>
<g transform="matrix(1 0 0 1 540 540)" id="09a232a9-0684-4063-8f32-6cbbd3f43ddb"  >
<rect style="stroke: none; stroke-width: 1; stroke-dasharray: none; stroke-linecap: butt; stroke-dashoffset: 0; stroke-linejoin: miter; stroke-miterlimit: 4; fill: rgb(255,255,255); fill-rule: nonzero; opacity: 1; visibility: hidden;" vector-effect="non-scaling-stroke"  x="-540" y="-540" rx="0" ry="0" width="1080" height="1080" />
</g>
<g transform="matrix(0 0 0 0 0 0)"  >
<g style=""   >
</g>
</g>
<g transform="matrix(100.23 0 0 100.23 540 540)"  >
<g style=""   >
		<g transform="matrix(1 0 0 1 0.06 0)" id="Path_2601"  >
<path style="stroke: none; stroke-width: 1; stroke-dasharray: none; stroke-linecap: butt; stroke-dashoffset: 0; stroke-linejoin: miter; stroke-miterlimit: 4; fill: rgb(255,255,255); fill-rule: nonzero; opacity: 1;" vector-effect="non-scaling-stroke"  transform=" translate(-5.45, -506.67)" d="M 5.387 501.342 C 2.451774504191028 501.3744993335598 0.09553787374739553 503.7745724076659 0.11714437245092846 506.70989829709333 C 0.13875087115446139 509.6452241865207 2.5300634333951475 512.0103512548542 5.465449292479357 511.99963788856167 C 8.400835151563566 511.9889245222692 10.774820086341844 509.6064054039536 10.774999999999999 506.671 C 10.75572752227428 503.712836706888 8.345196180436002 501.3287013095873 5.387 501.342 Z M 5.387 511.174 C 2.90882774397913 511.14481060732277 0.9207353697730705 509.1173505694271 0.9401379169122519 506.63908236515203 C 0.9595404640514333 504.1608141608769 2.97913346210906 502.164730591525 5.457458964390469 502.17434599053047 C 7.935784466671878 502.1839613895359 9.939828100913182 504.19565585085377 9.939999999999998 506.674 C 9.92183569546907 509.17242952778497 7.885470945944071 511.18508961407144 5.386999999999999 511.174 Z" stroke-linecap="round" />
</g>
		<g transform="matrix(1 0 0 1 0 -0.04)" id="Path_2602"  >
<path style="stroke: none; stroke-width: 1; stroke-dasharray: none; stroke-linecap: butt; stroke-dashoffset: 0; stroke-linejoin: miter; stroke-miterlimit: 4; fill: rgb(255,255,255); fill-rule: nonzero; opacity: 1;" vector-effect="non-scaling-stroke"  transform=" translate(-5.39, -506.63)" d="M 7.474 506.221 L 5.8 506.221 L 5.8 504.57 C 5.789100386621831 504.34735684693914 5.6054097915675385 504.17243893343596 5.3825 504.17243893343596 C 5.159590208432461 504.17243893343596 4.975899613378169 504.34735684693914 4.965 504.57 L 4.965 506.221 L 3.3 506.221 C 3.147782228300325 506.21350304423845 3.0038064847825585 506.29044433584016 2.9254506365330823 506.42116088189306 C 2.8470947882836057 506.551877427946 2.8470947882836057 506.715122572054 2.9254506365330823 506.84583911810694 C 3.0038064847825585 506.97655566415983 3.147782228300325 507.05349695576155 3.3 507.046 L 4.97 507.046 L 4.97 508.7 C 4.980899613378169 508.92264315306085 5.164590208432461 509.097561066564 5.387499999999999 509.097561066564 C 5.610409791567538 509.097561066564 5.79410038662183 508.92264315306085 5.805 508.7 L 5.805 507.048 L 7.474 507.048 C 7.626217771699674 507.05549695576156 7.770193515217441 506.97855566415984 7.848549363466918 506.84783911810695 C 7.926905211716394 506.717122572054 7.926905211716394 506.553877427946 7.848549363466918 506.42316088189307 C 7.770193515217441 506.2924443358402 7.626217771699674 506.21550304423846 7.474 506.223 Z" stroke-linecap="round" />
</g>
</g>
</g>
</svg>