<?xml version="1.0" encoding="UTF-8" standalone="no" ?>
<!DOCTYPE svg PUBLIC "-//W3C//DTD SVG 1.1//EN" "http://www.w3.org/Graphics/SVG/1.1/DTD/svg11.dtd">
<svg xmlns="http://www.w3.org/2000/svg" xmlns:xlink="http://www.w3.org/1999/xlink" version="1.1" width="1080" height="1080" viewBox="0 0 1080 1080" xml:space="preserve">
<desc>Created with Fabric.js 5.2.4</desc>
<defs>
</defs>
<g transform="matrix(1 0 0 1 540 540)" id="30396a5e-6152-4440-8276-7402a78afe45"  >
<rect style="stroke: none; stroke-width: 1; stroke-dasharray: none; stroke-linecap: butt; stroke-dashoffset: 0; stroke-linejoin: miter; stroke-miterlimit: 4; fill: rgb(255,255,255); fill-rule: nonzero; opacity: 1; visibility: hidden;" vector-effect="non-scaling-stroke"  x="-540" y="-540" rx="0" ry="0" width="1080" height="1080" />
</g>
<g transform="matrix(1 0 0 1 540 540)" id="8d4358da-9f98-4431-9ca9-64f157069e6d"  >
</g>
<g transform="matrix(1 0 0 1 540 540)"  >
<g style="" vector-effect="non-scaling-stroke"   >
		<g transform="matrix(1 0 0 1 0.23 0)"  >
<rect style="stroke: none; stroke-width: 1; stroke-dasharray: none; stroke-linecap: butt; stroke-dashoffset: 0; stroke-linejoin: miter; stroke-miterlimit: 4; fill: rgb(0,0,0); fill-rule: nonzero; opacity: 1; visibility: hidden;" vector-effect="non-scaling-stroke"  x="-540" y="-540" rx="0" ry="0" width="1080" height="1080" />
</g>
		<g transform="matrix(91.74 0 0 91.74 -292.76 223.88)"  >
<path style="stroke: none; stroke-width: 1; stroke-dasharray: none; stroke-linecap: butt; stroke-dashoffset: 0; stroke-linejoin: miter; stroke-miterlimit: 4; fill: rgb(0,0,0); fill-rule: nonzero; opacity: 1;" vector-effect="non-scaling-stroke"  transform=" translate(-66.7, -445.53)" d="M 68.558 443.181 L 64.98100000000001 446.46299999999997 L 64.98100000000001 445.3 C 64.9609598198288 445.04394767456245 64.74733536007194 444.84638945167626 64.49050000000001 444.84638945167626 C 64.23366463992808 444.84638945167626 64.02004018017122 445.04394767456245 64.00000000000001 445.3 L 64.00000000000001 447.551 C 64.01189023862429 447.8105846015632 64.23136495538098 448.01173250897773 64.49100000000001 448.001 L 66.94300000000001 448.001 C 67.11389925513888 448.0171304291776 67.27918646248968 447.9350617844174 67.3696362103032 447.78916596791487 C 67.46008595811671 447.6432701514123 67.46008595811671 447.45872984858767 67.3696362103032 447.3128340320851 C 67.27918646248968 447.16693821558255 67.11389925513888 447.0848695708224 66.94300000000001 447.101 L 65.675 447.101 L 69.252 443.818 C 69.34297076394506 443.73733947998875 69.39504078309089 443.62158042351143 69.39504078309089 443.5 C 69.39504078309089 443.3784195764885 69.34297076394506 443.2626605200112 69.252 443.18199999999996 C 69.05415843018935 443.005957263201 68.75584156981064 443.005957263201 68.55799999999999 443.18199999999996 Z" stroke-linecap="round" />
</g>
		<g transform="matrix(91.74 0 0 91.74 292.45 -312.07)"  >
<path style="stroke: none; stroke-width: 1; stroke-dasharray: none; stroke-linecap: butt; stroke-dashoffset: 0; stroke-linejoin: miter; stroke-miterlimit: 4; fill: rgb(0,0,0); fill-rule: nonzero; opacity: 1;" vector-effect="non-scaling-stroke"  transform=" translate(-73.08, -439.67)" d="M 75.282 437.2 L 72.829 437.2 C 72.65810074486113 437.18386957082237 72.49281353751033 437.26593821558254 72.40236378969682 437.4118340320851 C 72.3119140418833 437.55772984858766 72.3119140418833 437.7422701514123 72.4023637896968 437.88816596791486 C 72.49281353751032 438.0340617844174 72.65810074486113 438.1161304291776 72.829 438.09999999999997 L 74.1 438.09999999999997 L 70.52199999999999 441.383 C 70.43102923605493 441.4636605200112 70.3789592169091 441.57941957648853 70.3789592169091 441.701 C 70.3789592169091 441.82258042351145 70.43102923605493 441.93833947998877 70.52199999999999 442.019 C 70.71984156981064 442.19504273679894 71.01815843018935 442.19504273679894 71.216 442.019 L 74.79299999999999 438.737 L 74.79299999999999 439.9 C 74.8130401801712 440.15605232543754 75.02666463992806 440.35361054832373 75.28349999999999 440.35361054832373 C 75.54033536007192 440.35361054832373 75.75395981982878 440.15605232543754 75.77399999999999 439.9 L 75.77399999999999 437.649 C 75.76212099397432 437.3891523147231 75.54184814023897 437.18813095023694 75.282 437.2 Z" stroke-linecap="round" />
</g>
</g>
</g>
</svg>